# Alias OBJ Model File
# Exported from SketchUp, (c) 2000-2012 Trimble Navigation Limited
# File units = millimeters

mtllib zemin_engel.mtl

g Mesh1 Group1 Model

usemtl zemin_engel
v 1064.34 0 -1912.37
vt 1 1
vn 0 -1 -0
v -1123.18 0 1904.15
vt 0 0
v -1123.18 0 -1912.37
vt 0 1
f 1/1/1 2/2/1 3/3/1

v 1064.34 0 1904.15
vt 1 0
f 2/2/1 1/1/1 4/4/1

vn 1 0 -0
v 1064.34 5 1904.15
f 1/1/2 5/4/2 4/4/2

v 1064.34 5 -1912.37
f 5/4/2 1/1/2 6/1/2

vn 0 0 -1
v -1123.18 5 -1912.37
f 1/1/3 7/3/3 6/1/3

f 7/3/3 1/1/3 3/3/3

vn -1 0 -0
f 2/2/4 7/3/4 3/3/4

v -1123.18 5 1904.15
f 7/3/4 2/2/4 8/2/4

vn 0 0 1
f 2/2/5 5/4/5 8/2/5

f 5/4/5 2/2/5 4/4/5

vn 0 1 -0
f 5/4/6 7/3/6 8/2/6

f 7/3/6 5/4/6 6/1/6

