# Alias OBJ Model File
# Exported from SketchUp, (c) 2000-2012 Trimble Navigation Limited
# File units = millimeters

mtllib trafik_levha_sola_donulmez.mtl

g Mesh1 Group2 Group1 Model

usemtl FrontColor
v 0 -3.94795e-014 -10
vt -0.393701 0.393701
vn -7.06952e-031 -1 3.94795e-015
v -10 0 -1.40998e-015
vt 1.09882e-045 5.55112e-017
v -10 -3.94795e-014 -10
vt 0 0.393701
f 1/1/1 2/2/1 3/3/1

v 0 0 -0
vt -0.393701 -6.13635e-030
f 2/2/1 1/1/1 4/4/1

vt 0.393701 0
vn 1 0 -0
v 0 2000 -7.77183e-012
vt 3.05977e-013 78.7402
vt 0 1.55431e-015
f 1/5/2 5/6/2 4/7/2

v 0 2000 -10
vt 0.393701 78.7402
f 5/6/2 1/5/2 6/8/2

vt -0.393701 1.52989e-015
vn 1.40998e-016 -3.88591e-015 -1
v -10 2000 -10
vt 5.55112e-017 78.7402
vt -0.393701 78.7402
f 1/9/3 7/10/3 6/11/3

vt 5.55112e-017 1.52989e-015
f 7/10/3 1/9/3 3/12/3

vt -0.393701 0
vn -1 0 -0
v -10 2000 -7.77324e-012
vt -3.06033e-013 78.7402
f 3/13/4 8/14/4 7/11/4

vt -5.55112e-017 1.55431e-015
f 8/14/4 3/13/4 2/15/4

vt -7.82698e-033 1.55431e-015
vn -1.40998e-016 3.88591e-015 1
vt -4.31501e-029 78.7402
f 2/16/5 5/8/5 8/17/5

vt 0.393701 1.55431e-015
f 5/8/5 2/16/5 4/18/5

vt 0.393701 3.05977e-013
vn 0 1 -0
vt 0 3.06033e-013
f 5/19/6 7/3/6 8/20/6

vt 0.393701 0.393701
f 7/3/6 5/19/6 6/21/6

g Mesh2 Group3 Group1 Model

usemtl M_0128_White
v 189.856 2112.5 -7.75561e-012
vt -1.89004e-015 2.7914
vn 0.866025 -0.5 3.65321e-017
v 154.099 2065.9 -7.76689e-012
vt -2.20559e-015 0.478929
vn 0.707107 -0.707107 1.16689e-016
v 189.856 2112.5 -10
vt -0.393701 2.7914
f 9/22/7 10/23/8 11/24/7

usemtl M_0016_Tomato
vt 1.18678 4.42913
vn -2.85344e-018 -1.68666e-016 1
v 148.098 2071.9 -7.76689e-012
vt 2.8308 2.8308
vt 2.59453 2.59453
f 9/25/9 12/26/9 10/27/9

v 182.506 2116.74 -7.75561e-012
vt 1.47616 4.5962
f 13/28/9 12/26/9 9/25/9

usemtl FrontColor
vn -1.04119e-031 -1.65049e-016 1
v 141.334 2078.67 -7.76689e-012
vt 3.0971 3.0971
f 13/28/10 14/29/10 12/26/10

v 174.221 2121.53 -7.75561e-012
vt 1.80231 4.78451
f 15/30/10 14/29/10 13/28/10

usemtl qq295
vt 0.879329 0.280994
vn 1.27756e-032 -1.65298e-016 1
v -184.221 2121.53 -7.75561e-012
vt 0.120671 0.280994
vt 0.809721 0.190279
f 15/31/11 16/32/11 14/33/11

v -204.895 2171.44 -7.74997e-012
vt 0.0769134 0.386634
f 17/34/11 16/32/11 15/31/11

usemtl FrontColor
vt 16.7282 6.74953
v -214.135 2168.96 -7.75561e-012
vt 17.0919 6.65206
vt 15.9142 4.78451
f 17/35/10 18/36/10 16/37/10

v -221.513 2225 -7.74433e-012
vt 17.3824 8.85827
f 19/38/10 18/36/10 17/35/10

usemtl M_0016_Tomato
v -230 2225 -7.74433e-012
vt 17.7165 8.85827
f 19/38/9 20/39/9 18/36/9

v -222.333 2283.23 -7.73305e-012
vt 17.4147 11.151
f 21/40/9 20/39/9 19/38/9

usemtl M_0128_White
vt 7.16064e-016 8.78248
vn -0.965926 0.258819 -5.62957e-017
v -222.333 2283.23 -10
vt 0.393701 8.78248
vt 1.15332e-015 6.47001
vn -1 0 -3.45385e-019
f 21/41/12 22/42/12 20/43/13

vt 0.393701 3.63782
vt -5.7093e-016 3.63782
v -199.856 2337.5 -10
vt 0.393701 5.9503
vn -0.866025 0.5 -8.15109e-017
f 22/44/12 21/45/12 23/46/14

v -199.856 2337.5 -7.72177e-012
vt -9.29589e-016 5.9503
f 24/47/14 23/46/14 21/45/12

vt 0.393701 0.478929
vt -8.43158e-016 0.478929
v -164.099 2384.1 -10
vt 0.393701 2.7914
vn -0.707107 0.707107 -3.65321e-017
f 23/48/14 24/49/14 25/50/15

v -164.099 2384.1 -7.71049e-012
vt -1.15871e-015 2.7914
f 26/51/15 25/50/15 24/49/14

vt 0.393701 -2.7914
vt 2.22045e-016 -2.7914
v -117.5 2419.86 -10
vt 0.393701 -0.478929
vn -0.5 0.866025 2.24894e-017
f 25/52/15 26/53/15 27/54/16

v -117.5 2419.86 -7.71049e-012
vt 2.22045e-016 -0.478929
f 28/55/16 27/54/16 26/53/15

vt 0.393701 -5.9503
vt 1.77042e-015 -5.9503
v -63.2343 2442.33 -10
vt 0.393701 -3.63782
vn -0.258819 0.965926 2.24894e-017
f 27/56/16 28/57/16 29/58/17

v -63.2343 2442.33 -7.70485e-012
vt 1.29942e-015 -3.63782
f 30/59/17 29/58/17 28/57/16

vt 0.393701 -8.78248
vt 0 -8.78248
v -5 2450 -10
vt 0.393701 -6.47001
vn -2.05764e-015 1 -0
f 29/60/17 30/61/17 31/62/18

v -5 2450 -7.70485e-012
vt 0 -6.47001
f 32/63/18 31/62/18 30/61/17

vt -0.393701 11.095
vt 0 11.095
v 53.2343 2442.33 -10
vt -0.393701 8.78248
vn 0.258819 0.965926 -1.20694e-017
f 31/64/18 32/65/18 33/66/19

v 53.2343 2442.33 -7.70485e-012
vt 0 8.78248
f 34/67/19 33/66/19 32/65/18

vt -0.393701 12.7301
vt -4.10599e-016 12.7301
v 107.5 2419.86 -10
vt -0.393701 10.4176
vn 0.5 0.866025 -1.20694e-017
f 33/68/19 34/69/19 35/70/20

v 107.5 2419.86 -7.71049e-012
vt -4.99034e-016 10.4176
f 36/71/20 35/70/20 34/69/19

vt -0.393701 13.5765
vt -2.22045e-016 13.5765
v 154.099 2384.1 -10
vt -0.393701 11.2641
vn 0.707107 0.707107 1.8443e-017
f 35/72/20 36/73/20 37/74/21

v 154.099 2384.1 -7.71049e-012
vt -2.22045e-016 11.2641
f 38/75/21 37/74/21 36/73/20

vt -1.02447e-016 13.5765
v 189.856 2337.5 -7.72177e-012
vt -6.11428e-016 11.2641
vn 0.866025 0.5 8.023e-018
f 38/76/21 39/77/22 37/72/21

usemtl M_0016_Tomato
vt 2.59453 15.122
v 148.098 2378.1 -7.71613e-012
vt 2.8308 14.8857
vt 1.18678 13.2874
f 38/78/9 40/79/9 39/80/9

v 103.256 2412.51 -7.71049e-012
vt 4.5962 16.2404
f 41/81/9 40/79/9 38/78/9

usemtl FrontColor
v 98.4735 2404.22 -7.71049e-012
vt 4.78451 15.9142
f 41/81/10 42/82/10 40/79/10

v 48.5618 2424.9 -7.71049e-012
vt 6.74953 16.7282
f 43/83/10 42/82/10 41/81/10

usemtl qq295
vt 0.613366 0.923087
v -58.5618 2424.9 -7.71049e-012
vt 0.386634 0.923087
vt 0.719006 0.879329
f 43/84/11 44/85/11 42/86/11

v -5 2431.95 -7.71049e-012
vt 0.5 0.938012
f 45/87/11 44/85/11 43/84/11

usemtl FrontColor
vt 8.85827 17.0058
v -61.0376 2434.14 -7.71049e-012
vt 11.0645 17.0919
vt 10.967 16.7282
f 45/88/10 46/89/10 44/90/10

v 51.0376 2434.14 -7.71049e-012
vt 6.65206 17.0919
f 46/89/10 45/88/10 47/91/10

f 45/88/10 43/83/10 47/91/10

f 47/91/10 43/83/10 41/81/10

usemtl M_0016_Tomato
vt 4.42913 16.5298
f 47/91/9 41/81/9 36/92/9

f 36/92/9 41/81/9 38/78/9

vt 6.56558 17.4147
f 34/93/9 47/91/9 36/92/9

v -5 2441.51 -7.70485e-012
vt 8.85827 17.3824
f 48/94/9 47/91/9 34/93/9

usemtl FrontColor
f 48/94/10 46/89/10 47/91/10

usemtl M_0016_Tomato
vt 11.151 17.4147
f 48/94/9 30/95/9 46/89/9

f 30/95/9 48/94/9 34/93/9

vt 8.85827 17.7165
f 32/96/9 30/95/9 34/93/9

vt 13.2874 16.5298
f 30/95/9 28/97/9 46/89/9

v -113.256 2412.51 -7.71049e-012
vt 13.1203 16.2404
f 46/89/9 28/97/9 49/98/9

vt 15.122 15.122
f 28/97/9 26/99/9 49/98/9

v -158.098 2378.1 -7.71613e-012
vt 14.8857 14.8857
f 49/98/9 26/99/9 50/100/9

vt 16.5298 13.2874
f 26/99/9 24/101/9 50/100/9

v -192.506 2333.26 -7.72177e-012
vt 16.2404 13.1203
f 50/100/9 24/101/9 51/102/9

f 24/101/9 21/40/9 51/102/9

v -214.135 2281.04 -7.73305e-012
vt 17.0919 11.0645
f 51/102/9 21/40/9 52/103/9

f 52/103/9 21/40/9 19/38/9

usemtl FrontColor
v -211.947 2225 -7.74433e-012
vt 17.0058 8.85827
f 52/103/10 19/38/10 53/104/10

f 53/104/10 19/38/10 17/35/10

usemtl qq295
vt 0.0619885 0.5
v 194.895 2171.44 -7.74997e-012
vt 0.923087 0.386634
f 53/105/11 17/34/11 54/106/11

f 54/106/11 17/34/11 15/31/11

usemtl FrontColor
vt 0.98837 6.74953
v 204.135 2168.96 -7.75561e-012
vt 0.624593 6.65206
f 54/107/10 15/30/10 55/108/10

f 55/108/10 15/30/10 13/28/10

usemtl M_0016_Tomato
v 212.333 2166.77 -7.75561e-012
vt 0.301838 6.56558
f 55/108/9 13/28/9 56/109/9

f 56/109/9 13/28/9 9/25/9

usemtl M_0128_White
vt -1.9984e-015 5.9503
vn 0.965926 -0.258819 -1.26033e-017
vt -1.9984e-015 3.63782
v 212.333 2166.77 -10
vt -0.393701 5.9503
f 56/110/23 9/111/7 57/112/23

vt -0.393701 3.63782
f 11/113/7 57/112/23 9/111/7

usemtl FrontColor
vn -2.08886e-018 -1.70206e-016 1
v -199.856 2112.5 -10
vt 16.5298 4.42913
f 57/109/24 58/114/24 11/25/24

v -222.333 2166.77 -10
vt 17.4147 6.56558
f 59/115/24 58/114/24 57/109/24

usemtl M_0128_White
vt 0.393701 10.4176
vn -0.866025 -0.5 2.89472e-017
v -199.856 2112.5 -7.76125e-012
vt 2.89508e-015 10.4176
vt 0.393701 12.7301
vn -0.965926 -0.258819 2.99875e-017
f 58/116/25 60/117/25 59/118/26

vt 2.63074e-015 13.5765
vt 0.393701 13.5765
v -164.099 2065.9 -7.76689e-012
vt 2.81784e-015 11.2641
vn -0.707107 -0.707107 2.69549e-017
f 60/119/25 58/120/25 61/121/27

v -164.099 2065.9 -10
vt 0.393701 11.2641
f 62/122/27 61/121/27 58/120/25

vt 3.28102e-015 13.5765
v -117.5 2030.14 -7.77817e-012
vt 3.62337e-015 11.2641
vn -0.5 -0.866025 1.70237e-017
f 61/123/27 62/120/27 63/124/28

v -117.5 2030.14 -10
f 64/122/28 63/124/28 62/120/27

vt 2.88658e-015 12.7301
v -63.2343 2007.67 -7.77817e-012
vt 2.88658e-015 10.4176
vn -0.258819 -0.965926 -0
f 63/125/28 64/118/28 65/126/29

v -63.2343 2007.67 -10
f 66/116/29 65/126/29 64/118/28

vt 2.88658e-015 11.095
vt 0.393701 11.095
v -5 2000 -7.77817e-012
vt 2.88658e-015 8.78248
vn -4.75916e-016 -1 -0
f 65/127/29 66/128/29 67/129/30

v -5 2000 -10
f 68/42/30 67/129/30 66/128/29

vt -2.88658e-015 -8.78248
vt -0.393701 -8.78248
v 53.2343 2007.67 -7.77817e-012
vt -2.88658e-015 -6.47001
vn 0.258819 -0.965926 -6.42056e-017
f 67/130/30 68/131/30 69/132/31

v 53.2343 2007.67 -10
vt -0.393701 -6.47001
f 70/133/31 69/132/31 68/131/30

vt -5.07084e-015 -5.9503
vt -0.393701 -5.9503
v 107.5 2030.14 -7.77253e-012
vt -4.13804e-015 -3.63782
vn 0.5 -0.866025 1.59513e-017
f 69/134/31 70/135/31 71/136/32

v 107.5 2030.14 -10
vt -0.393701 -3.63782
f 72/137/32 71/136/32 70/135/31

vt -1.50813e-015 -2.7914
vt -0.393701 -2.7914
vt -1.76508e-015 -0.478929
f 71/138/32 72/139/32 10/140/8

v 154.099 2065.9 -10
vt -0.393701 -0.478929
f 73/141/8 10/140/8 72/139/32

vt -0.393701 0.478929
f 73/142/8 11/24/7 10/23/8

usemtl FrontColor
vt 15.122 2.59453
f 11/25/24 62/143/24 73/27/24

f 58/114/24 62/143/24 11/25/24

vt 4.42913 1.18678
f 73/27/24 62/143/24 72/144/24

vt 13.2874 1.18678
f 62/143/24 64/145/24 72/144/24

vt 6.56558 0.301838
f 72/144/24 64/145/24 70/146/24

vt 11.151 0.301838
f 64/145/24 66/147/24 70/146/24

vt 8.85827 -6.70104e-017
f 68/148/24 70/146/24 66/147/24

usemtl M_0016_Tomato
v 103.256 2037.49 -7.77253e-012
vt 4.5962 1.47616
f 10/27/9 74/149/9 71/144/9

f 12/26/9 74/149/9 10/27/9

usemtl FrontColor
v 98.4735 2045.78 -7.76689e-012
vt 4.78451 1.80231
f 12/26/10 75/150/10 74/149/10

f 14/29/10 75/150/10 12/26/10

usemtl qq295
v -151.334 2078.67 -7.76689e-012
vt 0.190279 0.190279
vt 0.719006 0.120671
f 14/33/11 76/151/11 75/152/11

f 16/32/11 76/151/11 14/33/11

usemtl FrontColor
v -192.506 2116.74 -7.75561e-012
vt 16.2404 4.5962
vt 14.6194 3.0971
f 16/37/10 77/153/10 76/154/10

f 18/36/10 77/153/10 16/37/10

usemtl M_0016_Tomato
v -222.333 2166.77 -7.75561e-012
f 18/36/9 78/115/9 77/153/9

f 20/39/9 78/115/9 18/36/9

usemtl M_0128_White
vt 1.94307e-015 11.095
v -230 2225 -10
vt 2.38053e-015 8.78248
f 20/155/13 79/128/13 78/156/26

vt 0.393701 6.47001
f 79/157/13 20/43/13 22/42/12

usemtl FrontColor
v 220 2225 -10
vt 8.22387e-019 8.85827
f 22/40/24 79/39/24 80/158/24

f 79/39/24 59/115/24 80/158/24

usemtl M_0128_White
f 59/42/26 78/156/26 79/128/13

vt 2.70916e-015 12.7301
f 78/159/26 59/118/26 60/117/25

usemtl M_0016_Tomato
f 78/115/9 60/114/9 77/153/9

v -158.098 2071.9 -7.76689e-012
vt 14.8857 2.8308
f 77/153/9 60/114/9 81/160/9

f 60/114/9 61/143/9 81/160/9

v -113.256 2037.49 -7.77253e-012
vt 13.1203 1.47616
f 81/160/9 61/143/9 82/161/9

f 61/143/9 63/145/9 82/161/9

v -61.0376 2015.86 -7.77817e-012
vt 11.0645 0.624593
f 82/161/9 63/145/9 83/162/9

f 63/145/9 65/147/9 83/162/9

v -5 2008.49 -7.77817e-012
vt 8.85827 0.334141
f 83/162/9 65/147/9 84/163/9

f 84/163/9 65/147/9 69/146/9

vt 8.85827 -4.82605e-031
f 67/164/9 69/146/9 65/147/9

v 51.0376 2015.86 -7.77817e-012
vt 6.65206 0.624593
f 84/163/9 69/146/9 85/165/9

f 71/144/9 85/165/9 69/146/9

f 74/149/9 85/165/9 71/144/9

usemtl FrontColor
v 48.5618 2025.1 -7.77817e-012
vt 6.74953 0.98837
f 74/149/10 86/166/10 85/165/10

f 75/150/10 86/166/10 74/149/10

usemtl qq295
v -108.473 2045.78 -7.76689e-012
vt 0.280994 0.120671
vt 0.613366 0.0769134
f 75/152/11 87/167/11 86/168/11

f 76/151/11 87/167/11 75/152/11

usemtl FrontColor
vt 12.932 1.80231
f 76/154/10 81/160/10 87/169/10

f 77/153/10 81/160/10 76/154/10

f 81/160/10 82/161/10 87/169/10

v -58.5618 2025.1 -7.77817e-012
vt 10.967 0.98837
f 87/169/10 82/161/10 88/170/10

f 82/161/10 83/162/10 88/170/10

v -5 2018.05 -7.77817e-012
vt 8.85827 0.71075
f 88/170/10 83/162/10 89/171/10

f 89/171/10 83/162/10 85/165/10

f 84/163/10 85/165/10 83/162/10

f 89/171/10 85/165/10 86/166/10

usemtl qq295
vt 0.5 0.0619885
vt 0.386634 0.0769134
f 89/172/11 86/168/11 88/173/11

f 87/167/11 88/173/11 86/168/11

usemtl FrontColor
f 80/158/24 59/115/24 57/109/24

usemtl M_0128_White
vt -0.393701 6.47001
vn 1 0 -1.21328e-017
vt -2.00601e-015 6.47001
f 57/174/23 80/66/33 56/175/23

v 220 2225 -7.74433e-012
vt -1.55431e-015 8.78248
f 90/176/33 56/175/23 80/66/33

usemtl M_0016_Tomato
vt 4.43514e-033 8.85827
f 90/177/9 55/108/9 56/109/9

v 211.513 2225 -7.74433e-012
vt 0.334141 8.85827
f 91/178/9 55/108/9 90/177/9

usemtl FrontColor
f 91/178/10 54/107/10 55/108/10

v 201.947 2225 -7.74433e-012
vt 0.71075 8.85827
f 92/179/10 54/107/10 91/178/10

usemtl qq295
vt 0.938012 0.5
f 92/180/11 53/105/11 54/106/11

v -204.895 2278.56 -7.73305e-012
vt 0.0769134 0.613366
f 93/181/11 53/105/11 92/180/11

usemtl FrontColor
vt 16.7282 10.967
f 93/182/10 52/103/10 53/104/10

v -184.221 2328.47 -7.72177e-012
vt 15.9142 12.932
f 94/183/10 52/103/10 93/182/10

f 51/102/10 52/103/10 94/183/10

v -151.334 2371.33 -7.71613e-012
vt 14.6194 14.6194
f 95/184/10 51/102/10 94/183/10

f 50/100/10 51/102/10 95/184/10

v -108.473 2404.22 -7.71049e-012
vt 12.932 15.9142
f 96/185/10 50/100/10 95/184/10

f 49/98/10 50/100/10 96/185/10

f 44/90/10 49/98/10 96/185/10

f 46/89/10 49/98/10 44/90/10

usemtl qq295
vt 0.280994 0.879329
f 44/85/11 96/186/11 42/86/11

v 141.334 2371.33 -7.71613e-012
vt 0.809721 0.809721
f 42/86/11 96/186/11 97/187/11

vt 0.190279 0.809721
f 96/186/11 95/188/11 97/187/11

v 174.221 2328.47 -7.72177e-012
vt 0.879329 0.719006
f 97/187/11 95/188/11 98/189/11

vt 0.120671 0.719006
f 95/188/11 94/190/11 98/189/11

v 194.895 2278.56 -7.73305e-012
vt 0.923087 0.613366
f 98/189/11 94/190/11 99/191/11

f 94/190/11 93/181/11 99/191/11

f 99/191/11 93/181/11 92/180/11

usemtl FrontColor
vt 0.98837 10.967
f 99/192/10 92/179/10 91/178/10

v 204.135 2281.04 -7.73305e-012
vt 0.624593 11.0645
f 100/193/10 99/192/10 91/178/10

vt 1.80231 12.932
f 98/194/10 99/192/10 100/193/10

v 182.506 2333.26 -7.72177e-012
vt 1.47616 13.1203
f 101/195/10 98/194/10 100/193/10

vt 3.0971 14.6194
f 97/196/10 98/194/10 101/195/10

f 40/79/10 97/196/10 101/195/10

f 42/82/10 97/196/10 40/79/10

usemtl M_0016_Tomato
f 40/79/9 101/195/9 39/80/9

v 212.333 2283.23 -7.73305e-012
vt 0.301838 11.151
f 39/80/9 101/195/9 102/197/9

f 101/195/9 100/193/9 102/197/9

f 102/197/9 100/193/9 90/177/9

f 100/193/9 91/178/9 90/177/9

usemtl M_0128_White
vt -1.10994e-015 11.095
vn 0.965926 0.258819 -9.9495e-018
v 212.333 2283.23 -10
f 102/198/34 90/176/33 103/64/34

f 80/66/33 103/64/34 90/176/33

usemtl FrontColor
f 103/197/24 22/40/24 80/158/24

f 23/101/24 22/40/24 103/197/24

v 189.856 2337.5 -10
f 104/80/24 23/101/24 103/197/24

f 37/78/24 23/101/24 104/80/24

f 25/99/24 23/101/24 37/78/24

f 27/97/24 25/99/24 37/78/24

f 35/92/24 27/97/24 37/78/24

f 29/95/24 27/97/24 35/92/24

f 33/93/24 29/95/24 35/92/24

f 31/96/24 29/95/24 33/93/24

usemtl M_0128_White
f 104/74/22 37/72/21 39/77/22

vt -6.92675e-016 12.7301
vt -1.11697e-015 10.4176
f 39/199/22 102/200/34 104/68/22

f 103/70/34 104/68/22 102/200/34

