# Alias OBJ Model File
# Exported from SketchUp, (c) 2000-2012 Trimble Navigation Limited
# File units = millimeters

mtllib trafik_levha_hayvan.mtl

g Mesh1 Group2 Group1 Model

usemtl levha_hayvan
v -466.703 2013.87 -10
vt 0.031726 0.0366863
vn 9.08438e-016 -5.51328e-015 -1
v 430.683 2000 -10
vt 0.946381 0.0200483
v -433.414 2000 -10
vt 0.0656556 0.0200483
f 1/1/1 2/2/1 3/3/1

v 451.319 2017.94 -10
vt 0.967414 0.04157
f 2/2/1 1/1/1 4/4/1

v -466.703 2033.84 -10
vt 0.031726 0.0606584
f 4/4/1 1/1/1 5/5/1

v -466.703 2013.87 -8.04254e-012
vn -1 0 -9.08438e-016
f 6/1/2 5/5/2 1/1/2

v -466.703 2033.84 -8.04254e-012
f 5/5/2 6/1/2 7/5/2

vn -9.08438e-016 5.51328e-015 1
v 451.319 2017.94 -6.86944e-012
f 6/1/3 8/4/3 7/5/3

v -433.414 2000 -7.77183e-012
f 9/3/3 8/4/3 6/1/3

v 430.683 2000 -7.77183e-012
f 8/4/3 9/3/3 10/2/3

vn 0 -1 5.51328e-015
f 9/3/4 2/2/4 10/2/4

f 2/2/4 9/3/4 3/3/4

vn -0.384507 -0.923122 4.74013e-015
f 6/1/5 3/3/5 9/3/5

f 3/3/5 6/1/5 1/1/5

vn 0.656003 -0.754758 4.75714e-015
f 4/4/6 10/2/6 2/2/6

f 10/2/6 4/4/6 8/4/6

vn 1 0 9.08438e-016
v 451.319 2050.19 -6.86944e-012
vt 0.967414 0.0802673
f 4/4/7 11/6/7 8/4/7

v 451.319 2050.19 -10
f 11/6/7 4/4/7 12/6/7

f 4/4/1 5/5/1 12/6/1

v -457.826 2056.59 -10
vt 0.0407739 0.0879538
f 12/6/1 5/5/1 13/7/1

vn -0.931578 0.363542 -2.85059e-015
v -457.826 2056.59 -8.13278e-012
f 5/5/8 14/7/8 13/7/8

f 14/7/8 5/5/8 7/5/8

f 7/5/3 11/6/3 14/7/3

f 7/5/3 8/4/3 11/6/3

v 15.7373 2816.68 -1.19526e-011
vt 0.52345 1
f 14/7/3 11/6/3 15/8/3

vn 0.86942 0.494074 -1.93416e-015
f 12/6/9 15/8/9 11/6/9

v 15.7373 2816.68 -10
f 15/8/9 12/6/9 16/8/9

f 12/6/1 13/7/1 16/8/1

v -17.9072 2816.68 -10
vt 0.489158 1
f 16/8/1 13/7/1 17/9/1

vn -0.865491 0.500925 -3.54799e-015
v -17.9072 2816.68 -1.19867e-011
f 13/7/10 18/9/10 17/9/10

f 18/9/10 13/7/10 14/7/10

f 14/7/3 15/8/3 18/9/3

vn 5.59551e-030 1 -5.51328e-015
f 15/8/11 17/9/11 18/9/11

f 17/9/11 15/8/11 16/8/11

g Mesh2 Group3 Group1 Model

usemtl FrontColor
v 0 -3.94795e-014 -10
vt -0.393701 0.393701
vn -7.06952e-031 -1 3.94795e-015
v -10 0 -1.05749e-015
vt 1.09882e-045 5.55112e-017
v -10 -3.94795e-014 -10
vt 0 0.393701
f 19/10/12 20/11/12 21/12/12

v 0 0 3.52489e-016
vt -0.393701 -6.13635e-030
f 20/11/12 19/10/12 22/13/12

vt 0.393701 0
vn 1 0 -0
v 0 2000 -7.77148e-012
vt 3.05977e-013 78.7402
vt 0 1.55431e-015
f 19/14/13 23/15/13 22/16/13

v 0 2000 -10
vt 0.393701 78.7402
f 23/15/13 19/14/13 24/17/13

vt -0.393701 1.52989e-015
vn 1.40998e-016 -3.88591e-015 -1
v -10 2000 -10
vt 5.55112e-017 78.7402
vt -0.393701 78.7402
f 19/18/14 25/19/14 24/20/14

vt 5.55112e-017 1.52989e-015
f 25/19/14 19/18/14 21/21/14

vt -0.393701 0
vn -1 0 -0
v -10 2000 -7.77289e-012
vt -3.06033e-013 78.7402
f 21/22/15 26/23/15 25/20/15

vt -5.55112e-017 1.55431e-015
f 26/23/15 21/22/15 20/24/15

vt -7.82698e-033 1.55431e-015
vn -1.40998e-016 3.88591e-015 1
vt -4.31501e-029 78.7402
f 20/25/16 23/17/16 26/26/16

vt 0.393701 1.55431e-015
f 23/17/16 20/25/16 22/27/16

vt 0.393701 3.05977e-013
vn 0 1 -0
vt 0 3.06033e-013
f 23/28/17 25/12/17 26/29/17

vt 0.393701 0.393701
f 25/12/17 23/28/17 24/30/17

