# Alias OBJ Model File
# Exported from SketchUp, (c) 2000-2012 Trimble Navigation Limited
# File units = millimeters

mtllib trafik_levha_azami_hiz_30.mtl

g Mesh1 Group2 Group1 Model

usemtl FrontColor
v 10 -3.94795e-014 -10
vt -0.393701 0.393701
vn -7.06952e-031 -1 3.94795e-015
v 0 0 -0
vt 1.09882e-045 5.55112e-017
v 0 -3.94795e-014 -10
vt 0 0.393701
f 1/1/1 2/2/1 3/3/1

v 10 0 1.40998e-015
vt -0.393701 -6.13635e-030
f 2/2/1 1/1/1 4/4/1

vt 0.393701 0
vn 1 0 -0
v 10 2000 -7.77042e-012
vt 3.05977e-013 78.7402
vt 0 1.55431e-015
f 1/5/2 5/6/2 4/7/2

v 10 2000 -10
vt 0.393701 78.7402
f 5/6/2 1/5/2 6/8/2

vt -0.393701 1.52989e-015
vn 1.40998e-016 -3.88591e-015 -1
v 0 2000 -10
vt 5.55112e-017 78.7402
vt -0.393701 78.7402
f 1/9/3 7/10/3 6/11/3

vt 5.55112e-017 1.52989e-015
f 7/10/3 1/9/3 3/12/3

vt -0.393701 0
vn -1 0 -0
v 0 2000 -7.77183e-012
vt -3.06033e-013 78.7402
f 3/13/4 8/14/4 7/11/4

vt -5.55112e-017 1.55431e-015
f 8/14/4 3/13/4 2/15/4

vt -7.82698e-033 1.55431e-015
vn -1.40998e-016 3.88591e-015 1
vt -4.31501e-029 78.7402
f 2/16/5 5/8/5 8/17/5

vt 0.393701 1.55431e-015
f 5/8/5 2/16/5 4/18/5

vt 0.393701 3.05977e-013
vn 0 1 -0
vt 0 3.06033e-013
f 5/19/6 7/3/6 8/20/6

vt 0.393701 0.393701
f 7/3/6 5/19/6 6/21/6

g Mesh2 Group3 Group1 Model

usemtl M_0128_White
v -87.1029 2424.96 -1.06052e-011
vt -9.68382e-015 -1.0753
vn -0.457545 0.889187 -5.56599e-015
v -87.1029 2424.96 -10
vt 0.393701 -1.0753
v -135.394 2391.49 -1.03768e-011
vt -3.57226e-014 -3.38861
vn -0.672093 0.740467 -4.56215e-015
f 9/22/7 10/23/7 11/24/8

vt 0.393701 -6.50039
vt -1.20646e-013 -6.50039
v -31.7936 2444.79 -10
vt 0.393701 -4.18707
vn -0.211816 0.97731 -6.19051e-015
f 10/25/7 9/26/7 12/27/9

v -31.7936 2444.79 -1.07434e-011
vt -7.69606e-014 -4.18707
f 13/28/9 12/27/9 9/26/7

vt 0.393701 -9.248
vt -7.14384e-013 -9.248
v 26.7646 2449.64 -10
vt 0.393701 -6.93468
vn 0.0483482 0.998831 -6.39317e-015
f 12/29/9 13/30/9 14/31/10

v 26.7646 2449.64 -1.07885e-011
vt -5.35135e-013 -6.93468
f 15/32/10 14/31/10 13/30/9

vt -0.393701 11.4442
vt -4.1229e-013 11.4442
v 84.5813 2439.16 -10
vt -0.393701 9.13088
vn 0.305217 0.952283 -6.16014e-015
f 14/33/10 15/34/10 16/35/11

v 84.5813 2439.16 -1.07377e-011
vt -3.29474e-013 9.13088
f 17/36/11 16/35/11 15/34/10

vt -0.393701 12.9393
vt -1.95962e-013 12.9393
v 137.716 2414.08 -10
vt -0.393701 10.626
vn 0.541286 0.840839 -5.5073e-015
f 16/37/11 17/38/11 18/39/12

v 137.716 2414.08 -1.05911e-011
vt -1.61355e-013 10.626
f 19/40/12 18/39/12 17/38/11

vt -0.393701 13.6315
vt -1.37061e-013 13.6315
v 182.548 2376.1 -10
vt -0.393701 11.3181
vn 0.740467 0.672093 -4.47916e-015
f 18/41/12 19/42/12 20/43/13

v 182.548 2376.1 -1.0357e-011
vt -1.14094e-013 11.3181
f 21/44/13 20/43/13 19/42/12

vt -0.393701 13.4735
vt -1.06969e-013 13.4735
v 216.023 2327.8 -10
vt -0.393701 11.1602
vn 0.889187 0.457545 -3.14576e-015
f 20/45/13 21/46/13 22/47/14

v 216.023 2327.8 -1.00581e-011
vt -8.9034e-014 11.1602
f 23/48/14 22/47/14 21/46/13

vt -0.393701 12.4761
vt -8.69573e-014 12.4761
v 235.857 2272.5 -10
vt -0.393701 10.1628
vn 0.97731 0.211816 -1.59799e-015
f 22/49/14 23/50/14 24/51/15

v 235.857 2272.5 -9.71126e-012
vt -7.13169e-014 10.1628
f 25/52/15 24/51/15 23/50/14

vt -0.393701 10.7074
vt -7.09808e-014 10.7074
v 240.701 2213.94 -10
vt -0.393701 8.39404
vn 0.998831 -0.0483482 5.86823e-017
f 24/53/15 25/54/15 26/55/16

v 240.701 2213.94 -9.3362e-012
vt -5.60663e-014 8.39404
f 27/56/16 26/55/16 25/54/15

vt -0.393701 8.28773
vt -5.60663e-014 8.28773
v 230.224 2156.12 -10
vt -0.393701 5.97441
vn 0.952283 -0.305217 1.71136e-015
f 26/57/16 27/58/16 28/59/17

v 230.224 2156.12 -8.96679e-012
vt -4.11481e-014 5.97441
f 29/60/17 28/59/17 27/58/16

vt -0.393701 5.38214
vt -4.03816e-014 5.38214
v 205.14 2102.99 -10
vt -0.393701 3.06882
vn 0.840839 -0.541286 3.2474e-015
f 28/61/17 29/62/17 30/63/18

v 205.14 2102.99 -8.61711e-012
vt -2.38838e-014 3.06882
f 31/64/18 30/63/18 29/62/17

vt -0.393701 2.18858
vt -2.05287e-014 2.18858
v 167.158 2058.15 -10
vt -0.393701 -0.124736
vn 0.672093 -0.740467 4.56215e-015
f 30/65/18 31/66/18 32/67/19

v 167.158 2058.15 -8.32384e-012
vt -1.26363e-015 -0.124736
f 33/68/19 32/67/19 31/66/18

vt -0.393701 -1.0753
vt 9.75033e-015 -1.0753
v 118.868 2024.68 -10
vt -0.393701 -3.38861
vn 0.457545 -0.889187 5.56599e-015
f 32/69/19 33/70/19 34/71/20

v 118.868 2024.68 -8.09824e-012
vt 3.56781e-014 -3.38861
f 35/72/20 34/71/20 33/70/19

vt -0.393701 -4.18707
vt 7.69192e-014 -4.18707
v 63.5583 2004.84 -10
vt -0.393701 -6.50039
vn 0.211816 -0.97731 6.19051e-015
f 34/73/20 35/74/20 36/75/21

v 63.5583 2004.84 -7.95724e-012
vt 1.20716e-013 -6.50039
f 37/76/21 36/75/21 35/74/20

vt -0.393701 -6.93468
vt 5.35091e-013 -6.93468
v 5 2000 -10
vt -0.393701 -9.248
vn -0.0483482 -0.998831 6.39317e-015
f 36/77/21 37/78/21 38/79/22

v 5 2000 -7.91212e-012
vt 7.1434e-013 -9.248
f 39/80/22 38/79/22 37/78/21

vt 0.393701 9.13088
vt 3.29471e-013 9.13088
v -52.8167 2010.48 -10
vt 0.393701 11.4442
vn -0.305217 -0.952283 6.16014e-015
f 38/81/22 39/82/22 40/83/23

v -52.8167 2010.48 -7.96288e-012
vt 4.12287e-013 11.4442
f 41/84/23 40/83/23 39/82/22

vt 0.393701 10.626
vt 1.61274e-013 10.626
v -105.952 2035.56 -10
vt 0.393701 12.9393
vn -0.541286 -0.840839 5.5073e-015
f 40/85/23 41/86/23 42/87/24

v -105.952 2035.56 -8.10952e-012
vt 1.9588e-013 12.9393
f 43/88/24 42/87/24 41/86/23

vt 0.393701 11.3181
vt 1.14105e-013 11.3181
v -150.784 2073.54 -10
vt 0.393701 13.6315
vn -0.740467 -0.672093 4.47916e-015
f 42/89/24 43/90/24 44/91/25

v -150.784 2073.54 -8.34076e-012
vt 1.3696e-013 13.6315
f 45/92/25 44/91/25 43/90/24

vt 8.89897e-014 11.1602
v -184.258 2121.83 -8.64249e-012
vt 1.07035e-013 13.4735
vn -0.889187 -0.457545 3.14576e-015
vt 0.393701 11.1602
f 45/93/25 46/94/26 44/95/25

usemtl qq299
vt 0.9286 0.278755
vn 2.50484e-016 6.38853e-015 1
vt 0.856916 0.17501
vt 0.0947041 0.238262
f 46/96/27 45/97/27 31/98/27

vt 0.176042 0.141948
f 31/98/27 45/97/27 33/99/27

vt 0.760907 0.0934133
f 45/97/27 43/100/27 33/99/27

vt 0.279457 0.0700346
f 33/99/27 43/100/27 35/101/27

vt 0.647119 0.0395246
f 43/100/27 41/102/27 35/101/27

vt 0.397902 0.0274228
f 35/101/27 41/102/27 37/103/27

vt 0.523304 0.0170164
f 39/104/27 37/103/27 41/102/27

vt 0.0409864 0.352413
f 29/105/27 46/96/27 31/98/27

v -204.093 2177.14 -8.98935e-012
vt 0.971077 0.397577
f 47/106/27 46/96/27 29/105/27

usemtl M_0128_White
vt 7.12763e-014 10.1628
vt 8.69167e-014 12.4761
vn -0.97731 -0.211816 1.59799e-015
v -184.258 2121.83 -10
vt 0.393701 10.1628
f 46/107/26 47/108/28 48/109/26

v -204.093 2177.14 -10
vt 0.393701 12.4761
f 49/110/28 48/109/26 47/108/28

vt -17.5116 6.97414
vn -2.50484e-016 -6.38853e-015 -1
vt -0.412483 6.14646
vt -16.7307 4.79661
f 49/111/29 28/112/29 48/113/29

vt 9.86158e-017 8.42271
f 26/114/29 28/112/29 49/111/29

v -208.937 2235.7 -10
vt -17.7023 9.27958
f 50/115/29 26/114/29 49/111/29

vt -0.190708 10.7282
f 24/116/29 26/114/29 50/115/29

v -198.46 2293.52 -10
vt -17.2898 11.5558
f 51/117/29 24/116/29 50/115/29

vt -0.97161 12.9057
f 22/118/29 24/116/29 51/117/29

v -173.376 2346.65 -10
vt -16.3022 13.6478
f 52/119/29 22/118/29 51/117/29

vt -2.28949 14.8069
f 20/120/29 22/118/29 52/119/29

v -135.394 2391.49 -10
vt -14.8069 15.4128
f 53/121/29 20/120/29 52/119/29

vt -4.05454 16.3022
f 18/122/29 20/120/29 53/121/29

vt -12.9057 16.7307
f 10/123/29 18/122/29 53/121/29

vt -6.14646 17.2898
f 16/124/29 18/122/29 10/123/29

vt -10.7282 17.5116
f 12/125/29 16/124/29 10/123/29

vt -8.42271 17.7023
f 14/126/29 16/124/29 12/125/29

vt 0.393701 -3.38861
f 53/127/8 11/24/8 10/23/7

vt 0.393701 2.18858
vt 0.393701 -0.124736
vn -0.840839 0.541286 -3.2474e-015
vt 2.06022e-014 2.18858
f 53/128/8 52/129/30 11/130/8

v -173.376 2346.65 -1.00807e-011
vt 1.22612e-015 -0.124736
f 54/131/30 11/130/8 52/129/30

usemtl qq299
vt 0.823958 0.858052
vt 0.905296 0.761738
vt 0.143084 0.82499
f 11/132/27 54/133/27 21/134/27

vt 0.0713996 0.721245
f 21/134/27 54/133/27 23/135/27

v -198.46 2293.52 -9.73664e-012
vt 0.959014 0.647587
f 54/133/27 55/136/27 23/135/27

usemtl M_0128_White
vt 2.40176e-014 3.06882
vn -0.952283 0.305217 -1.71136e-015
vt 4.02934e-014 5.38214
vt 0.393701 3.06882
f 55/137/31 54/138/30 51/139/31

vt 0.393701 5.38214
f 52/140/30 51/139/31 54/138/30

vt 0.393701 8.28773
vt 0.393701 5.97441
vn -0.998831 0.0483482 -5.86823e-017
vt 5.61462e-014 8.28773
f 51/141/31 50/142/32 55/143/31

v -208.937 2235.7 -9.3644e-012
vt 4.11171e-014 5.97441
f 56/144/32 55/143/31 50/142/32

usemtl qq299
vt 0.98145 0.523379
vt 0.0289231 0.602423
f 55/136/27 56/145/27 25/146/27

vt 0.0185497 0.476621
f 25/146/27 56/145/27 27/147/27

f 56/145/27 47/106/27 27/147/27

usemtl M_0128_White
vt 5.60511e-014 8.39404
vt 7.09656e-014 10.7074
vt 0.393701 8.39404
f 47/148/28 56/149/32 49/150/28

vt 0.393701 10.7074
f 50/151/32 49/150/28 56/149/32

usemtl qq299
f 27/147/27 47/106/27 29/105/27

f 23/135/27 55/136/27 25/146/27

vt 0.239093 0.906587
f 19/152/27 11/132/27 21/134/27

vt 0.720543 0.929965
f 9/153/27 11/132/27 19/152/27

vt 0.352881 0.960475
f 17/154/27 9/153/27 19/152/27

vt 0.602098 0.972577
f 13/155/27 9/153/27 17/154/27

vt 0.476696 0.982984
f 15/156/27 13/155/27 17/154/27

usemtl M_0128_White
vt -1.40005 4.05454
f 28/112/29 30/157/29 48/113/29

vt -15.4128 2.89539
f 48/113/29 30/157/29 44/158/29

vt -2.89539 2.28949
f 30/157/29 32/159/29 44/158/29

vt -13.6478 1.40005
f 44/158/29 32/159/29 42/160/29

vt -4.79661 0.97161
f 32/159/29 34/161/29 42/160/29

vt -11.5558 0.412483
f 42/160/29 34/161/29 40/162/29

vt -6.97414 0.190708
f 34/161/29 36/163/29 40/162/29

vt -9.27958 2.51517e-015
f 38/164/29 40/162/29 36/163/29

vt 0.393701 13.4735
f 48/165/26 44/95/25 46/94/26

