# Alias OBJ Model File
# Exported from SketchUp, (c) 2000-2012 Trimble Navigation Limited
# File units = millimeters

mtllib trafik_levha_azami_hiz_20.mtl

g Mesh1 Group2 Group1 Model

usemtl FrontColor
v 4.51195e-014 -4.51195e-014 -10
vt -0.393701 0.393701
vn -7.06952e-031 -1 3.94795e-015
v -10 -5.63993e-015 -1.40998e-015
vt 1.09882e-045 5.55112e-017
v -10 -4.51195e-014 -10
vt 0 0.393701
f 1/1/1 2/2/1 3/3/1

v 4.51195e-014 -5.63993e-015 -0
vt -0.393701 -6.13635e-030
f 2/2/1 1/1/1 4/4/1

vt 0.393701 0
vn 1 0 -0
v 4.51195e-014 2000 -7.77183e-012
vt 3.05977e-013 78.7402
vt 0 1.55431e-015
f 1/5/2 5/6/2 4/7/2

v 4.51195e-014 2000 -10
vt 0.393701 78.7402
f 5/6/2 1/5/2 6/8/2

vt -0.393701 1.52989e-015
vn 1.40998e-016 -3.88591e-015 -1
v -10 2000 -10
vt 5.55112e-017 78.7402
vt -0.393701 78.7402
f 1/9/3 7/10/3 6/11/3

vt 5.55112e-017 1.52989e-015
f 7/10/3 1/9/3 3/12/3

vt -0.393701 0
vn -1 0 -0
v -10 2000 -7.77324e-012
vt -3.06033e-013 78.7402
f 3/13/4 8/14/4 7/11/4

vt -5.55112e-017 1.55431e-015
f 8/14/4 3/13/4 2/15/4

vt -7.82698e-033 1.55431e-015
vn -1.40998e-016 3.88591e-015 1
vt -4.31501e-029 78.7402
f 2/16/5 5/8/5 8/17/5

vt 0.393701 1.55431e-015
f 5/8/5 2/16/5 4/18/5

vt 0.393701 3.05977e-013
vn 0 1 -0
vt 0 3.06033e-013
f 5/19/6 7/3/6 8/20/6

vt 0.393701 0.393701
f 7/3/6 5/19/6 6/21/6

g Mesh2 Group3 Group1 Model

v -11.233 1999.18 -10
vt 8.87381 1.69284e-043
vn 9.7947e-031 4.29983e-043 1
v -5 2000 -10
vt 8.62842 0.0323067
v -17.466 2000 -10
vt 9.11921 0.0323067
f 9/22/7 10/23/7 11/24/7

usemtl qq298
vt 0.486816 -1.52873e-016
vn -9.0485e-016 -1 -1.2931e-015
v -5 2000 -7.76689e-012
vt 0.486816 -1.88001e-016
vt 0.513184 -1.27719e-016
f 10/25/8 12/26/8 11/27/8

vn 0.130526 -0.991445 -1.28203e-015
v 47.1035 2006.86 -7.75843e-012
vt 0.376612 0.0152723
vn 0.258819 -0.965926 -1.24903e-015
f 12/26/9 10/25/9 13/28/10

v 47.1035 2006.86 -10
f 14/28/10 13/28/10 10/25/9

v 101.464 2029.38 -7.72882e-012
vt 0.261632 0.0654051
vn 0.5 -0.866025 -1.11985e-015
f 13/28/10 14/28/10 15/29/11

v 101.464 2029.38 -10
f 16/29/11 15/29/11 14/28/10

v 148.145 2065.2 -7.68229e-012
vt 0.162897 0.145155
vn 0.707107 -0.707107 -9.14357e-016
f 15/29/11 16/29/11 17/30/12

v 148.145 2065.2 -10
f 18/30/12 17/30/12 16/29/11

v 183.965 2111.88 -10
vt 0.0871348 0.249087
vn 0.866025 -0.5 -6.46548e-016
f 18/30/12 19/31/13 17/30/12

usemtl FrontColor
vt 1.18887 4.43691
vn 1.45476e-031 -1.2931e-015 1
v -206.431 2111.88 -10
vt 16.5588 4.43691
vt 2.59908 2.59908
f 19/32/14 20/33/14 18/34/14

v 206.482 2166.24 -10
vt 0.302368 6.5771
f 21/35/14 20/33/14 19/32/14

v -228.948 2166.24 -10
vt 17.4453 6.5771
f 22/36/14 20/33/14 21/35/14

usemtl M_0128_White
vt 0.393701 10.4359
vn -0.866025 -0.5 -6.46548e-016
v -206.431 2111.88 -7.62166e-012
vt 8.28378e-015 10.4359
vt 0.393701 12.7525
vn -0.965926 -0.258819 -3.34678e-016
f 20/37/15 23/38/15 22/39/16

vt 7.22894e-016 13.6004
vt 0.393701 13.6004
v -170.611 2065.2 -7.68229e-012
vt 4.50913e-015 11.2838
vn -0.707107 -0.707107 -9.14357e-016
f 23/40/15 20/41/15 24/42/17

v -170.611 2065.2 -10
vt 0.393701 11.2838
f 25/43/17 24/42/17 20/41/15

vt -5.98833e-015 13.6004
v -123.93 2029.38 -7.72882e-012
vt -1.05936e-015 11.2838
vn -0.5 -0.866025 -1.11985e-015
f 24/44/17 25/41/17 26/45/18

v -123.93 2029.38 -10
f 27/43/18 26/45/18 25/41/17

vt -2.01817e-014 12.7525
v -69.5695 2006.86 -7.75843e-012
vt -1.23347e-014 10.4359
vn -0.258819 -0.965926 -1.24903e-015
f 26/46/18 27/39/18 28/47/19

v -69.5695 2006.86 -10
f 29/37/19 28/47/19 27/39/18

vt -8.71798e-014 11.1144
vt 0.393701 11.1144
v -17.466 2000 -7.76689e-012
vt -6.66986e-014 9.04541
vn -0.130526 -0.991445 -1.28203e-015
f 28/48/19 29/49/19 30/50/20

vt 0.393701 9.04541
f 11/51/20 30/50/20 29/49/19

usemtl qq298
vt 0.513184 -1.63064e-016
f 30/52/8 11/27/8 12/26/8

vt 0.486816 -1.50487e-016
vn -0 -1.2931e-015 1
vt 0.513184 -1.25551e-016
f 12/53/21 13/28/21 30/54/21

vt 0.623388 0.0152723
f 28/55/21 30/54/21 13/28/21

f 15/29/21 28/55/21 13/28/21

vt 0.738368 0.0654051
f 26/56/21 28/55/21 15/29/21

f 17/30/21 26/56/21 15/29/21

vt 0.837103 0.145155
f 24/57/21 26/56/21 17/30/21

vt 0.912865 0.249087
f 23/58/21 24/57/21 17/30/21

v 183.965 2111.88 -7.62166e-012
f 31/31/21 23/58/21 17/30/21

v 206.482 2166.24 -7.55258e-012
vt 0.0395087 0.370118
f 32/59/21 23/58/21 31/31/21

v -228.948 2166.24 -7.55258e-012
vt 0.960491 0.370118
f 33/60/21 23/58/21 32/59/21

usemtl M_0128_White
vt 5.08891e-015 12.7525
f 33/61/16 22/39/16 23/38/15

vt 0.393701 8.7979
vt 1.1463e-014 8.7979
v -236.628 2224.57 -10
vn -1 -7.27872e-016 -9.19991e-031
f 22/62/16 33/63/16 34/49/22

v -236.628 2224.57 -7.47644e-012
vt 8.41395e-015 11.1144
f 35/64/22 34/49/22 33/63/16

vt 0.393701 6.48137
vt 1.44566e-014 6.48137
v -228.948 2282.91 -10
vn -0.965926 0.258819 3.34678e-016
f 34/65/22 35/66/22 36/62/23

v -228.948 2282.91 -7.40171e-012
vt 1.14631e-014 8.7979
f 37/67/23 36/62/23 35/66/22

vt 0.393701 3.64421
vt 1.78372e-014 3.64421
v -206.431 2337.27 -10
vt 0.393701 5.96074
vn -0.866025 0.5 6.46548e-016
f 36/68/23 37/69/23 38/70/24

v -206.431 2337.27 -7.33121e-012
vt 1.45868e-014 5.96074
f 39/71/24 38/70/24 37/69/23

vt 0.393701 0.479769
vt 2.21477e-014 0.479769
v -170.611 2383.95 -10
vt 0.393701 2.7963
vn -0.707107 0.707107 9.14357e-016
f 38/72/24 39/73/24 40/74/25

v -170.611 2383.95 -7.27058e-012
vt 1.83615e-014 2.7963
f 41/75/25 40/74/25 39/73/24

vt 0.393701 -2.7963
vt 2.88589e-014 -2.7963
v -123.93 2419.77 -10
vt 0.393701 -0.479769
vn -0.5 0.866025 1.11985e-015
f 40/76/25 41/77/25 42/78/26

v -123.93 2419.77 -7.22405e-012
vt 2.393e-014 -0.479769
f 43/79/26 42/78/26 41/77/25

vt 0.393701 -5.96074
vt 4.30523e-014 -5.96074
v -69.5695 2442.29 -10
vt 0.393701 -3.64421
vn -0.258819 0.965926 1.24903e-015
f 42/80/26 43/81/26 44/82/27

v -69.5695 2442.29 -7.19444e-012
vt 3.52053e-014 -3.64421
f 45/83/27 44/82/27 43/81/26

vt 0.393701 -8.7979
vt 1.1005e-013 -8.7979
v -17.466 2449.15 -10
vt 0.393701 -6.72888
vn -0.130526 0.991445 1.28203e-015
f 44/84/27 45/85/27 46/86/28

v -17.466 2449.15 -7.18598e-012
vt 8.95692e-014 -6.72888
f 47/87/28 46/86/28 45/85/27

usemtl qq298
vt 0.513184 1
vn 8.68656e-014 1 1.2931e-015
v -5 2449.15 -10
vt 0.486816 1
f 46/88/29 47/88/29 48/89/29

v -5 2449.15 -7.18598e-012
f 49/89/29 48/89/29 47/88/29

vn 0.130526 0.991445 1.28203e-015
v 47.1035 2442.29 -10
vt 0.376612 0.984728
vn 0.258819 0.965926 1.24903e-015
f 48/89/30 49/89/30 50/90/31

v 47.1035 2442.29 -7.19444e-012
f 51/90/31 50/90/31 49/89/30

v 101.464 2419.77 -10
vt 0.261632 0.934595
vn 0.5 0.866025 1.11985e-015
f 50/90/31 51/90/31 52/91/32

v 101.464 2419.77 -7.22405e-012
f 53/91/32 52/91/32 51/90/31

v 148.145 2383.95 -10
vt 0.162897 0.854845
vn 0.707107 0.707107 9.14357e-016
f 52/91/32 53/91/32 54/92/33

v 148.145 2383.95 -7.27058e-012
f 55/92/33 54/92/33 53/91/32

v 183.965 2337.27 -7.33121e-012
vt 0.0871348 0.750913
vn 0.866025 0.5 6.46548e-016
f 55/92/33 56/93/34 54/92/33

vt 0.837103 0.854845
f 55/92/21 41/94/21 56/93/21

vt 0.738368 0.934595
f 43/95/21 41/94/21 55/92/21

f 53/91/21 43/95/21 55/92/21

f 51/90/21 43/95/21 53/91/21

vt 0.623388 0.984728
f 45/96/21 43/95/21 51/90/21

f 49/89/21 45/96/21 51/90/21

f 47/88/21 45/96/21 49/89/21

vt 0.912865 0.750913
f 41/94/21 39/97/21 56/93/21

vt 0.960491 0.629882
f 39/97/21 37/98/21 56/93/21

v 206.482 2282.91 -7.40171e-012
vt 0.0395087 0.629882
f 56/93/21 37/98/21 57/99/21

v 214.162 2224.57 -7.47644e-012
vt 0.0232644 0.5
f 57/99/21 37/98/21 58/100/21

vt 0.976736 0.5
f 37/98/21 35/101/21 58/100/21

f 35/101/21 33/60/21 58/100/21

f 58/100/21 33/60/21 32/59/21

vn 1 -2.23961e-016 -2.85943e-031
vn 0.965926 -0.258819 -3.34678e-016
v 214.162 2224.57 -10
f 58/100/35 32/59/36 59/100/35

f 21/59/36 59/100/35 32/59/36

usemtl FrontColor
vt -5.72741e-032 8.87381
f 59/102/14 22/36/14 21/35/14

vt 17.7476 8.87381
f 34/103/14 22/36/14 59/102/14

vt 17.4453 11.1705
f 36/104/14 34/103/14 59/102/14

v 206.482 2282.91 -10
vt 0.302368 11.1705
f 60/105/14 36/104/14 59/102/14

v 183.965 2337.27 -10
vt 1.18887 13.3107
f 61/106/14 36/104/14 60/105/14

vt 16.5588 13.3107
f 38/107/14 36/104/14 61/106/14

vt 15.1485 15.1485
f 40/108/14 38/107/14 61/106/14

vt 2.59908 15.1485
f 54/109/14 40/108/14 61/106/14

vt 13.3107 16.5588
f 42/110/14 40/108/14 54/109/14

vt 4.43691 16.5588
f 52/111/14 42/110/14 54/109/14

vt 6.5771 17.4453
f 50/112/14 42/110/14 52/111/14

vt 11.1705 17.4453
f 44/113/14 42/110/14 50/112/14

vt 8.62842 17.7153
f 48/114/14 44/113/14 50/112/14

vt 9.11921 17.7153
f 46/115/14 44/113/14 48/114/14

vn 2.30346e-028 7.27366e-016 1
v -11.233 2449.97 -10
vt 8.87381 17.7476
f 46/115/37 48/114/37 62/116/37

usemtl qq298
f 61/93/34 54/92/33 56/93/34

vn 0.965926 0.258819 3.34678e-016
f 56/93/34 57/99/38 61/93/34

f 60/99/38 61/93/34 57/99/38

f 57/99/38 58/100/35 60/99/38

f 59/100/35 60/99/38 58/100/35

f 32/59/36 31/31/13 21/59/36

f 19/31/13 21/59/36 31/31/13

f 31/31/13 17/30/12 19/31/13

usemtl FrontColor
vt 11.1705 0.302368
vt 6.5771 0.302368
f 29/117/14 11/24/14 14/118/14

f 10/23/14 14/118/14 11/24/14

vt 4.43691 1.18887
f 16/119/14 29/117/14 14/118/14

vt 13.3107 1.18887
f 27/120/14 29/117/14 16/119/14

f 18/34/14 27/120/14 16/119/14

vt 15.1485 2.59908
f 25/121/14 27/120/14 18/34/14

f 20/33/14 25/121/14 18/34/14

