# Alias OBJ Model File
# Exported from SketchUp, (c) 2000-2012 Trimble Navigation Limited
# File units = millimeters

mtllib trafik_levha_ileriden_sola_mecburi_yol.mtl

g Mesh1 Group2 Group1 Model

usemtl FrontColor
v -9.02389e-014 -4.51195e-014 -10
vt -0.393701 0.393701
vn -7.06952e-031 -1 3.94795e-015
v -10 -5.63993e-015 -1.40998e-015
vt 1.09882e-045 5.55112e-017
v -10 -4.51195e-014 -10
vt 0 0.393701
f 1/1/1 2/2/1 3/3/1

v -9.02389e-014 -5.63993e-015 -0
vt -0.393701 -6.13635e-030
f 2/2/1 1/1/1 4/4/1

vt 0.393701 0
vn 1 0 -0
v -9.02389e-014 2000 -7.77183e-012
vt 3.05977e-013 78.7402
vt 0 1.55431e-015
f 1/5/2 5/6/2 4/7/2

v -9.02389e-014 2000 -10
vt 0.393701 78.7402
f 5/6/2 1/5/2 6/8/2

vt -0.393701 1.52989e-015
vn 1.40998e-016 -3.88591e-015 -1
v -10 2000 -10
vt 5.55112e-017 78.7402
vt -0.393701 78.7402
f 1/9/3 7/10/3 6/11/3

vt 5.55112e-017 1.52989e-015
f 7/10/3 1/9/3 3/12/3

vt -0.393701 0
vn -1 0 -0
v -10 2000 -7.77324e-012
vt -3.06033e-013 78.7402
f 3/13/4 8/14/4 7/11/4

vt -5.55112e-017 1.55431e-015
f 8/14/4 3/13/4 2/15/4

vt -7.82698e-033 1.55431e-015
vn -1.40998e-016 3.88591e-015 1
vt -4.31501e-029 78.7402
f 2/16/5 5/8/5 8/17/5

vt 0.393701 1.55431e-015
f 5/8/5 2/16/5 4/18/5

vt 0.393701 3.05977e-013
vn 0 1 -0
vt 0 3.06033e-013
f 5/19/6 7/3/6 8/20/6

vt 0.393701 0.393701
f 7/3/6 5/19/6 6/21/6

g Mesh2 Group3 Group1 Model

usemtl M_0128_White
v -164.118 2377.1 -7.69992e-012
vt -3.16622e-016 13.2949
vn -0.700755 0.713402 -1.37405e-017
v -199.879 2331.35 -10
vt -0.393701 11.0088
vn -0.86211 0.50672 -9.75968e-018
v -199.879 2331.35 -7.69851e-012
vt -2.39914e-016 11.0088
f 9/22/7 10/23/8 11/24/8

v -164.118 2377.1 -10
vt -0.393701 13.2949
f 10/23/8 9/22/7 12/25/7

v -117.513 2412.2 -7.70133e-012
vt -4.46333e-016 13.3021
vn -0.493305 0.869856 -1.67538e-017
vt -0.393701 11.005
vt -3.43905e-016 11.005
f 13/26/9 12/27/7 9/28/7

v -117.513 2412.2 -10
vt -0.393701 13.3021
f 12/27/7 13/26/9 14/29/9

v -63.2411 2434.27 -7.70133e-012
vt -6.44102e-016 12.5227
vn -0.254528 0.967065 -1.86261e-017
vt -0.393701 10.2161
vt -5.42891e-016 10.2161
f 15/30/10 14/31/9 13/32/9

v -63.2411 2434.27 -10
vt -0.393701 12.5227
f 14/31/9 15/30/10 16/33/10

v -5 2441.8 -7.70133e-012
vt -1.65339e-015 11.0156
vn 0 1 -1.92605e-017
vt -0.393701 8.70355
vt -1.31167e-015 8.70355
f 17/34/11 16/35/10 15/36/10

v -5 2441.8 -10
vt -0.393701 11.0156
f 16/35/10 17/34/11 18/37/11

v 53.2411 2434.27 -7.70133e-012
vt -1.32898e-015 -8.86893
vn 0.254528 0.967065 -1.86261e-017
vt 0.393701 -6.5569
vt -9.87257e-016 -6.5569
f 19/38/12 18/39/11 17/40/11

v 53.2411 2434.27 -10
vt 0.393701 -8.86893
f 18/39/11 19/38/12 20/41/12

v 107.513 2412.2 -7.70133e-012
vt -2.96405e-016 -6.19755
vn 0.493305 0.869856 -1.67538e-017
vt 0.393701 -3.89097
vt -1.95194e-016 -3.89097
f 21/42/13 20/43/12 19/44/12

v 107.513 2412.2 -10
vt 0.393701 -6.19755
f 20/43/12 21/42/13 22/45/13

v 154.118 2377.1 -7.69992e-012
vt -1.09158e-016 -3.14777
vn 0.700755 0.713402 -1.37405e-017
vt 0.393701 -0.850663
vt -6.73078e-018 -0.850663
f 23/46/14 22/47/13 21/48/13

v 154.118 2377.1 -10
vt 0.393701 -3.14777
f 22/47/13 23/46/14 24/49/14

vt 4.98622e-017 2.38288
v 189.879 2331.35 -10
vt 0.393701 0.0967546
vn 0.86211 0.50672 -9.75968e-018
vt 0.393701 2.38288
f 23/50/14 25/51/15 24/52/14

v 189.879 2331.35 -7.69851e-012
vt -2.68455e-017 0.0967546
f 25/51/15 23/50/14 26/53/15

usemtl qq293
vt 0.168771 0.834629
vn 0 1.92605e-017 1
vt 0.882995 0.736618
vt 0.810844 0.834629
f 9/54/16 26/55/16 23/56/16

vt 0.09662 0.736618
f 11/57/16 26/55/16 9/54/16

v 212.359 2278.07 -7.69851e-012
vt 0.928351 0.622483
f 11/57/16 27/58/16 26/55/16

v -222.359 2278.07 -7.69851e-012
vt 0.0512638 0.622483
f 28/59/16 27/58/16 11/57/16

v -230.026 2220.9 -7.6971e-012
vt 0.0357937 0.5
f 29/60/16 27/58/16 28/59/16

v 220.026 2220.9 -7.6971e-012
vt 0.943822 0.5
f 29/60/16 30/61/16 27/58/16

v -222.359 2163.73 -7.69569e-012
vt 0.0512638 0.377517
f 31/62/16 30/61/16 29/60/16

v 212.359 2163.73 -7.69569e-012
vt 0.928351 0.377517
f 31/62/16 32/63/16 30/61/16

v 189.879 2110.45 -7.69428e-012
vt 0.882995 0.263382
f 31/62/16 33/64/16 32/63/16

v -199.879 2110.45 -7.69428e-012
vt 0.09662 0.263382
f 34/65/16 33/64/16 31/62/16

v -164.118 2064.7 -7.69428e-012
vt 0.168771 0.165371
f 35/66/16 33/64/16 34/65/16

v 154.118 2064.7 -7.69428e-012
vt 0.810844 0.165371
f 35/66/16 36/67/16 33/64/16

v -117.513 2029.59 -7.69287e-012
vt 0.262801 0.0901653
f 37/68/16 36/67/16 35/66/16

v 107.513 2029.59 -7.69287e-012
vt 0.716815 0.0901653
f 37/68/16 38/69/16 36/67/16

v -63.2411 2007.53 -7.69287e-012
vt 0.3723 0.0428888
f 39/70/16 38/69/16 37/68/16

v 53.2411 2007.53 -7.69287e-012
vt 0.607315 0.0428888
f 39/70/16 40/71/16 38/69/16

v -5 2000 -7.69287e-012
vt 0.489808 0.0267637
f 40/71/16 39/70/16 41/72/16

usemtl M_0128_White
vt 9.78599e-016 -6.47421
vn -0.254528 -0.967065 1.86261e-017
v -5 2000 -10
vt -0.393701 -8.78624
vn 0 -1 1.92605e-017
vt 1.32032e-015 -8.78624
f 39/73/17 42/74/18 41/75/18

v -63.2411 2007.53 -10
vt -0.393701 -6.47421
f 42/74/18 39/73/17 43/76/17

vt 2.09824e-016 -3.66454
vn -0.493305 -0.869856 1.67538e-017
vt -0.393701 -5.97112
vt 3.11035e-016 -5.97112
f 37/77/19 43/78/17 39/79/17

v -117.513 2029.59 -10
vt -0.393701 -3.66454
f 43/78/17 37/77/19 44/80/19

vt 1.08385e-017 -0.540072
vn -0.700755 -0.713402 1.37405e-017
vt -0.393701 -2.83718
vt 1.13266e-016 -2.83718
f 35/81/20 44/82/19 37/83/19

v -164.118 2064.7 -10
vt -0.393701 -0.540072
f 44/82/19 35/81/20 45/84/20

vt -1.64451e-017 0.408838
v -199.879 2110.45 -10
vt -0.393701 2.69496
vn -0.86211 -0.50672 9.75968e-018
vt -0.393701 0.408838
f 35/85/20 46/86/21 45/87/20

vt -3.76416e-017 2.69496
f 46/86/21 35/85/20 34/88/21

vt -1.08569e-016 5.82146
vn -0.96475 -0.263167 5.06872e-018
vt -0.393701 3.54489
vt -4.58649e-017 3.54489
f 31/89/22 46/90/21 34/91/21

v -222.359 2163.73 -10
vt -0.393701 5.82146
f 46/90/21 31/89/22 47/92/22

vt -1.66533e-016 8.61958
vn -1 -4.76069e-016 9.13291e-033
vt -0.393701 6.34854
vt -1.10243e-016 6.34854
f 29/93/23 47/94/22 31/95/22

v -230.026 2220.9 -10
vt -0.393701 8.61958
f 47/94/22 29/93/23 48/96/23

vt -2.22824e-016 10.8906
vn -0.96475 0.263167 -5.06872e-018
f 28/97/24 48/96/23 29/93/23

v -226.193 2249.48 -10
vt -0.393701 9.7551
vn -0.991126 0.132923 -2.56016e-018
f 48/96/23 28/97/24 49/98/25

v -222.359 2278.07 -10
vt -0.393701 10.8906
f 50/99/24 49/98/25 28/97/24

v 212.359 2278.07 -10
vt -17.4167 10.9476
vn 6.51591e-033 -1.92605e-017 -1
vt -0.150937 9.8222
vt -0.301874 10.9476
f 51/100/26 49/101/26 50/102/26

v 220.026 2220.9 -10
vt -17.7186 8.69675
f 52/103/26 49/101/26 51/100/26

vt 2.56532e-033 8.69675
f 52/103/26 48/104/26 49/101/26

v 212.359 2163.73 -10
vt -17.4167 6.44587
f 53/105/26 48/104/26 52/103/26

vt -0.301874 6.44587
f 53/105/26 47/106/26 48/104/26

v 189.879 2110.45 -10
vt -16.5317 4.34838
f 54/107/26 47/106/26 53/105/26

vt -1.18692 4.34838
f 54/107/26 46/108/26 47/106/26

v 154.118 2064.7 -10
vt -15.1238 2.54722
f 55/109/26 46/108/26 54/107/26

vt -2.59483 2.54722
f 55/109/26 45/110/26 46/108/26

v 107.513 2029.59 -10
vt -13.289 1.16514
f 56/111/26 45/110/26 55/109/26

vt -4.42966 1.16514
f 56/111/26 44/112/26 45/110/26

v 53.2411 2007.53 -10
vt -11.1523 0.296335
f 57/113/26 44/112/26 56/111/26

vt -6.56635 0.296335
f 57/113/26 43/114/26 44/112/26

vt -8.85931 7.58286e-018
f 43/114/26 57/113/26 42/115/26

vt 0.393701 11.0983
vn 0.254528 -0.967065 1.86261e-017
vt 1.32032e-015 8.78624
vt 0.393701 8.78624
f 57/116/27 41/117/18 42/118/18

vt 1.66205e-015 11.0983
f 41/117/18 57/116/27 40/119/27

vt 0.393701 12.7491
vn 0.493305 -0.869856 1.67538e-017
vt 5.28261e-016 10.4425
vt 0.393701 10.4425
f 56/120/28 40/121/27 57/122/27

vt 6.29472e-016 12.7491
f 40/121/27 56/120/28 38/123/28

vt 0.393701 13.6127
vn 0.700755 -0.713402 1.37405e-017
vt 3.39798e-016 11.3156
vt 0.393701 11.3156
f 55/124/29 38/125/28 56/126/28

vt 4.42225e-016 13.6127
f 38/125/28 55/124/29 36/127/29

vt 0.393701 11.3208
vt 3.04401e-016 13.607
vn 0.86211 -0.50672 9.75968e-018
vt 2.83205e-016 11.3208
f 55/128/29 33/129/30 36/130/29

vt 0.393701 13.607
f 33/129/30 55/128/29 54/131/30

vt 0.393701 10.4332
vt 2.52569e-016 12.7098
vn 0.96475 -0.263167 5.06872e-018
vt 1.89865e-016 10.4332
f 54/132/30 32/133/31 33/134/30

vt 0.393701 12.7098
f 32/133/31 54/132/30 53/135/31

vt 0.393701 8.70376
vt 2.12302e-016 10.9748
vn 1 -6.72098e-016 1.30193e-032
vt 1.56011e-016 8.70376
f 53/136/31 30/137/32 32/138/31

vt 0.393701 10.9748
f 30/137/32 53/136/31 52/139/32

vt 0.393701 6.26437
vt 1.77056e-016 8.5354
vn 0.96475 0.263167 -5.06872e-018
vt 1.20765e-016 6.26437
f 52/140/32 27/141/33 30/142/32

vt 0.393701 8.5354
f 27/141/33 52/140/32 51/143/33

vt 0.393701 3.31547
vt 8.76903e-017 5.59204
vt 8.04975e-017 3.31547
f 51/144/33 26/145/15 27/146/33

vt 0.393701 5.59204
f 26/145/15 51/144/33 25/147/15

vt -1.18692 13.0451
vt -16.5317 13.0451
f 51/100/26 10/148/26 25/149/26

f 51/100/26 50/102/26 10/148/26

vt -2.24498e-016 10.2038
vt -0.393701 12.4804
vt -0.393701 10.2038
f 28/150/24 10/151/8 50/152/24

vt -2.31691e-016 12.4804
f 10/151/8 28/150/24 11/153/8

vt -2.59483 14.8463
f 25/149/26 10/148/26 12/154/26

vt -15.1238 14.8463
f 25/149/26 12/154/26 24/155/26

vt -4.42966 16.2284
f 24/155/26 12/154/26 14/156/26

vt -13.289 16.2284
f 24/155/26 14/156/26 22/157/26

vt -6.56635 17.0972
f 22/157/26 14/156/26 16/158/26

vt -11.1523 17.0972
f 22/157/26 16/158/26 20/159/26

vt -8.85931 17.3935
f 20/159/26 16/158/26 18/160/26

usemtl qq293
vt 0.716815 0.909835
f 9/54/16 23/56/16 21/161/16

vt 0.262801 0.909835
f 9/54/16 21/161/16 13/162/16

vt 0.607315 0.957111
f 13/162/16 21/161/16 19/163/16

vt 0.3723 0.957111
f 13/162/16 19/163/16 15/164/16

vt 0.489808 0.973236
f 15/164/16 19/163/16 17/165/16

