# Alias OBJ Model File
# Exported from SketchUp, (c) 2000-2012 Trimble Navigation Limited
# File units = millimeters

mtllib zemin_durak_siyah.mtl

g Mesh1 Group1 Model

usemtl siyah_dikey_durak
v 1640 0 -5185.68
vt -1.0936 0.498483
vn 1 0 -0
v 1640 2 5154.32
vt 2.09559 0.498677
v 1640 0 5154.32
vt 2.09559 0.498483
f 1/1/1 2/2/1 3/3/1

v 1640 2 -5185.68
vt -1.0936 0.498677
f 2/2/1 1/1/1 4/4/1

vt 1.01166 0.498483
vn 0 0 -1
v -1640 2 -5185.68
vt 0 0.498677
vt 1.01166 0.498677
f 1/5/2 5/6/2 4/7/2

v -1640 0 -5185.68
vt 0 0.498483
f 5/6/2 1/5/2 6/8/2

vt 1.01166 1
vn 0 -1 -0
v -1640 0 5154.32
vt 0 0
vt 0 1
f 1/9/3 7/10/3 6/11/3

vt 1.01166 0
f 7/10/3 1/9/3 3/12/3

vt 2.22045e-016 0.498677
vn 0 0 1
vt 2.22045e-016 0.498483
f 2/13/4 7/5/4 3/14/4

v -1640 2 5154.32
f 7/5/4 2/13/4 8/7/4

vt 2.22045e-016 0
vn 0 1 -0
f 2/15/5 5/9/5 8/12/5

vt 2.22045e-016 1
f 5/9/5 2/15/5 4/16/5

vt 2.10526 0.498677
vn -1 0 -0
vt -1.08393 0.498483
vt -1.08393 0.498677
f 5/17/6 7/18/6 8/19/6

vt 2.10526 0.498483
f 7/18/6 5/17/6 6/20/6

