# Alias OBJ Model File
# Exported from SketchUp, (c) 2000-2012 Trimble Navigation Limited
# File units = millimeters

mtllib trafik_levha_saga_donulmez.mtl

g Mesh1 Group2 Group1 Model

usemtl FrontColor
v -9.02389e-014 0 -10
vt -0.393701 0.393701
vn -7.06952e-031 -1 3.94795e-015
v -10 3.94795e-014 -1.40998e-015
vt 1.09882e-045 5.55112e-017
v -10 0 -10
vt 0 0.393701
f 1/1/1 2/2/1 3/3/1

v -9.02389e-014 3.94795e-014 -0
vt -0.393701 -6.13635e-030
f 2/2/1 1/1/1 4/4/1

vt 0.393701 0
vn 1 0 -0
v -9.02389e-014 2000 -7.77183e-012
vt 3.05977e-013 78.7402
vt 0 1.55431e-015
f 1/5/2 5/6/2 4/7/2

v -9.02389e-014 2000 -10
vt 0.393701 78.7402
f 5/6/2 1/5/2 6/8/2

vt -0.393701 1.52989e-015
vn 1.40998e-016 -3.88591e-015 -1
v -10 2000 -10
vt 5.55112e-017 78.7402
vt -0.393701 78.7402
f 1/9/3 7/10/3 6/11/3

vt 5.55112e-017 1.52989e-015
f 7/10/3 1/9/3 3/12/3

vt -0.393701 0
vn -1 0 -0
v -10 2000 -7.77324e-012
vt -3.06033e-013 78.7402
f 3/13/4 8/14/4 7/11/4

vt -5.55112e-017 1.55431e-015
f 8/14/4 3/13/4 2/15/4

vt -7.82698e-033 1.55431e-015
vn -1.40998e-016 3.88591e-015 1
vt -4.31501e-029 78.7402
f 2/16/5 5/8/5 8/17/5

vt 0.393701 1.55431e-015
f 5/8/5 2/16/5 4/18/5

vt 0.393701 3.05977e-013
vn 0 1 -0
vt 0 3.06033e-013
f 5/19/6 7/3/6 8/20/6

vt 0.393701 0.393701
f 7/3/6 5/19/6 6/21/6

g Mesh2 Group3 Group1 Model

usemtl M_0128_White
v -199.856 2112.5 -10
vt -0.393701 2.7914
vn -0.866025 -0.5 3.65321e-017
v -164.099 2065.9 -7.74574e-012
vt -2.20559e-015 0.478929
vn -0.707107 -0.707107 1.16689e-016
v -199.856 2112.5 -7.73446e-012
vt -1.89004e-015 2.7914
f 9/22/7 10/23/8 11/24/7

v -164.099 2065.9 -10
vt -0.393701 0.478929
f 10/23/8 9/22/7 12/25/8

usemtl FrontColor
vt 2.59453 2.59453
vn 2.08886e-018 -1.70206e-016 1
v 154.099 2065.9 -10
vt 15.122 2.59453
vt 1.18678 4.42913
f 12/26/9 13/27/9 9/28/9

v -117.5 2030.14 -10
vt 4.42913 1.18678
f 14/29/9 13/27/9 12/26/9

v 107.5 2030.14 -10
vt 13.2874 1.18678
f 14/29/9 15/30/9 13/27/9

v -63.2343 2007.67 -10
vt 6.56558 0.301838
f 16/31/9 15/30/9 14/29/9

v 53.2343 2007.67 -10
vt 11.151 0.301838
f 16/31/9 17/32/9 15/30/9

v -5 2000 -10
vt 8.85827 -6.70104e-017
f 17/32/9 16/31/9 18/33/9

usemtl M_0128_White
vt -0.393701 -8.78248
vn 4.75916e-016 -1 -0
v -63.2343 2007.67 -7.75702e-012
vt -2.88658e-015 -6.47001
vn -0.258819 -0.965926 -6.42056e-017
vt -0.393701 -6.47001
f 18/34/10 19/35/11 16/36/11

v -5 2000 -7.75702e-012
vt -2.88658e-015 -8.78248
f 19/35/11 18/34/10 20/37/10

vt 0.393701 11.095
vn 0.258819 -0.965926 -0
vt 2.88658e-015 8.78248
vt 0.393701 8.78248
f 17/38/12 20/39/10 18/40/10

v 53.2343 2007.67 -7.75702e-012
vt 2.88658e-015 11.095
f 20/39/10 17/38/12 21/41/12

vt 0.393701 12.7301
vn 0.5 -0.866025 1.70237e-017
vt 2.88658e-015 10.4176
vt 0.393701 10.4176
f 15/42/13 21/43/12 17/44/12

v 107.5 2030.14 -7.75702e-012
vt 2.88658e-015 12.7301
f 21/43/12 15/42/13 22/45/13

vt 0.393701 13.5765
vn 0.707107 -0.707107 2.69549e-017
vt 3.62337e-015 11.2641
vt 0.393701 11.2641
f 13/46/14 22/47/13 15/48/13

v 154.099 2065.9 -7.74574e-012
vt 3.28102e-015 13.5765
f 22/47/13 13/46/14 23/49/14

v 189.856 2112.5 -10
vn 0.866025 -0.5 2.89472e-017
vt 2.81784e-015 11.2641
f 24/46/15 23/50/14 13/48/14

v 189.856 2112.5 -7.7401e-012
vt 2.63074e-015 13.5765
f 23/50/14 24/46/15 25/51/15

v 212.333 2166.77 -10
vn 0.965926 -0.258819 2.99875e-017
vt 2.89508e-015 10.4176
f 26/42/16 25/52/15 24/44/15

v 212.333 2166.77 -7.73446e-012
vt 2.70916e-015 12.7301
f 25/52/15 26/42/16 27/53/16

v 220 2225 -10
vn 1 0 -3.45385e-019
vt 2.38053e-015 8.78248
f 28/38/17 27/54/16 26/40/16

v 220 2225 -7.72318e-012
vt 1.94307e-015 11.095
f 27/54/16 28/38/17 29/55/17

v 212.333 2283.23 -10
vn 0.965926 0.258819 -5.62957e-017
vt 1.15332e-015 6.47001
vt 0.393701 6.47001
f 30/40/18 29/56/17 28/57/17

v 212.333 2283.23 -7.7119e-012
vt 7.16064e-016 8.78248
f 29/56/17 30/40/18 31/58/18

v 189.856 2337.5 -10
vt 0.393701 5.9503
vn 0.866025 0.5 -8.15109e-017
vt -5.7093e-016 3.63782
vt 0.393701 3.63782
f 32/59/19 31/60/18 30/61/18

v 189.856 2337.5 -7.70062e-012
vt -9.29589e-016 5.9503
f 31/60/18 32/59/19 33/62/19

v 154.099 2384.1 -10
vt 0.393701 2.7914
vn 0.707107 0.707107 -3.65321e-017
vt -8.43158e-016 0.478929
vt 0.393701 0.478929
f 34/63/20 33/64/19 32/65/19

v 154.099 2384.1 -7.68934e-012
vt -1.15871e-015 2.7914
f 33/64/19 34/63/20 35/66/20

v 107.5 2419.86 -10
vt 0.393701 -0.478929
vn 0.5 0.866025 2.24894e-017
vt 2.22045e-016 -2.7914
vt 0.393701 -2.7914
f 36/67/21 35/68/20 34/69/20

v 107.5 2419.86 -7.68934e-012
vt 2.22045e-016 -0.478929
f 35/68/20 36/67/21 37/70/21

v 53.2343 2442.33 -10
vt 0.393701 -3.63782
vn 0.258819 0.965926 2.24894e-017
vt 1.77042e-015 -5.9503
vt 0.393701 -5.9503
f 38/71/22 37/72/21 36/73/21

v 53.2343 2442.33 -7.6837e-012
vt 1.29942e-015 -3.63782
f 37/72/21 38/71/22 39/74/22

v -5 2450 -10
vt 0.393701 -6.47001
vn 2.05764e-015 1 -0
vt 0 -8.78248
vt 0.393701 -8.78248
f 40/75/23 39/76/22 38/77/22

v -5 2450 -7.6837e-012
vt 0 -6.47001
f 39/76/22 40/75/23 41/78/23

v -63.2343 2442.33 -10
vt -0.393701 8.78248
vn -0.258819 0.965926 -1.20694e-017
vt 0 11.095
vt -0.393701 11.095
f 42/79/24 41/80/23 40/81/23

v -63.2343 2442.33 -7.6837e-012
vt 0 8.78248
f 41/80/23 42/79/24 43/82/24

v -117.5 2419.86 -10
vt -0.393701 10.4176
vn -0.5 0.866025 -1.20694e-017
vt -4.10599e-016 12.7301
vt -0.393701 12.7301
f 44/83/25 43/84/24 42/85/24

v -117.5 2419.86 -7.68934e-012
vt -4.99034e-016 10.4176
f 43/84/24 44/83/25 45/86/25

v -164.099 2384.1 -10
vt -0.393701 11.2641
vn -0.707107 0.707107 1.8443e-017
vt -2.22045e-016 13.5765
vt -0.393701 13.5765
f 46/87/26 45/88/25 44/89/25

v -164.099 2384.1 -7.68934e-012
vt -2.22045e-016 11.2641
f 45/88/25 46/87/26 47/90/26

v -199.856 2337.5 -7.70062e-012
vt -6.11428e-016 11.2641
vn -0.866025 0.5 8.023e-018
vt -1.02447e-016 13.5765
f 46/89/26 48/91/27 47/92/26

v -199.856 2337.5 -10
f 48/91/27 46/89/26 49/87/27

usemtl FrontColor
vt 1.18678 13.2874
vt 16.5298 13.2874
vt 2.59453 15.122
f 49/93/9 32/94/9 46/95/9

v -222.333 2283.23 -10
vt 0.301838 11.151
f 50/96/9 32/94/9 49/93/9

vt 17.4147 11.151
f 50/96/9 30/97/9 32/94/9

v -230 2225 -10
vt 8.22387e-019 8.85827
f 51/98/9 30/97/9 50/96/9

vt 17.7165 8.85827
f 51/98/9 28/99/9 30/97/9

vt 17.4147 6.56558
f 51/98/9 26/100/9 28/99/9

v -222.333 2166.77 -10
vt 0.301838 6.56558
f 52/101/9 26/100/9 51/98/9

vt 16.5298 4.42913
f 52/101/9 24/102/9 26/100/9

f 9/28/9 24/102/9 52/101/9

f 9/28/9 13/27/9 24/102/9

usemtl M_0128_White
vt -1.9984e-015 3.63782
vt -0.393701 5.9503
vn -0.965926 -0.258819 -1.26033e-017
vt -0.393701 3.63782
f 11/103/7 52/104/28 9/105/7

v -222.333 2166.77 -7.73446e-012
vt -1.9984e-015 5.9503
f 52/104/28 11/103/7 53/106/28

usemtl M_0016_Tomato
vn 2.85344e-018 -1.68666e-016 1
v -192.506 2116.74 -7.73446e-012
vt 1.47616 4.5962
f 11/28/29 54/107/29 53/101/29

v -158.098 2071.9 -7.74574e-012
vt 2.8308 2.8308
f 11/28/29 55/108/29 54/107/29

f 10/26/29 55/108/29 11/28/29

v -113.256 2037.49 -7.75138e-012
vt 4.5962 1.47616
f 10/26/29 56/109/29 55/108/29

v -117.5 2030.14 -7.75138e-012
f 57/29/29 56/109/29 10/26/29

v -61.0376 2015.86 -7.75702e-012
vt 6.65206 0.624593
f 57/29/29 58/110/29 56/109/29

f 19/31/29 58/110/29 57/29/29

v -5 2008.49 -7.75702e-012
vt 8.85827 0.334141
f 58/110/29 19/31/29 59/111/29

f 19/31/29 21/32/29 59/111/29

vt 8.85827 -4.82605e-031
f 21/32/29 19/31/29 20/112/29

v 51.0376 2015.86 -7.75702e-012
vt 11.0645 0.624593
f 59/111/29 21/32/29 60/113/29

f 60/113/29 21/32/29 22/30/29

v 103.256 2037.49 -7.75138e-012
vt 13.1203 1.47616
f 60/113/29 22/30/29 61/114/29

f 61/114/29 22/30/29 23/27/29

v 148.098 2071.9 -7.74574e-012
vt 14.8857 2.8308
f 61/114/29 23/27/29 62/115/29

f 62/115/29 23/27/29 25/102/29

v 182.506 2116.74 -7.73446e-012
vt 16.2404 4.5962
f 62/115/29 25/102/29 63/116/29

f 63/116/29 25/102/29 27/100/29

v 204.135 2168.96 -7.73446e-012
vt 17.0919 6.65206
f 63/116/29 27/100/29 64/117/29

f 64/117/29 27/100/29 29/99/29

v 211.513 2225 -7.72318e-012
vt 17.3824 8.85827
f 64/117/29 29/99/29 65/118/29

f 65/118/29 29/99/29 31/97/29

v 204.135 2281.04 -7.7119e-012
vt 17.0919 11.0645
f 65/118/29 31/97/29 66/119/29

v 182.506 2333.26 -7.70062e-012
vt 16.2404 13.1203
f 66/119/29 31/97/29 67/120/29

f 67/120/29 31/97/29 33/94/29

v 148.098 2378.1 -7.69498e-012
vt 14.8857 14.8857
f 67/120/29 33/94/29 68/121/29

vt 15.122 15.122
f 68/121/29 33/94/29 35/122/29

v 103.256 2412.51 -7.68934e-012
vt 13.1203 16.2404
f 68/121/29 35/122/29 69/123/29

vt 13.2874 16.5298
f 69/123/29 35/122/29 37/124/29

v 51.0376 2434.14 -7.68934e-012
vt 11.0645 17.0919
f 69/123/29 37/124/29 70/125/29

vt 11.151 17.4147
f 70/125/29 37/124/29 39/126/29

v -5 2441.51 -7.6837e-012
vt 8.85827 17.3824
f 70/125/29 39/126/29 71/127/29

vt 6.56558 17.4147
f 43/128/29 71/127/29 39/126/29

v -61.0376 2434.14 -7.68934e-012
vt 6.65206 17.0919
f 43/128/29 72/129/29 71/127/29

vt 4.42913 16.5298
f 45/130/29 72/129/29 43/128/29

v -113.256 2412.51 -7.68934e-012
vt 4.5962 16.2404
f 45/130/29 73/131/29 72/129/29

f 47/95/29 73/131/29 45/130/29

v -158.098 2378.1 -7.69498e-012
vt 2.8308 14.8857
f 47/95/29 74/132/29 73/131/29

f 48/93/29 74/132/29 47/95/29

v -192.506 2333.26 -7.70062e-012
vt 1.47616 13.1203
f 48/93/29 75/133/29 74/132/29

v -222.333 2283.23 -7.7119e-012
f 76/96/29 75/133/29 48/93/29

v -214.135 2281.04 -7.7119e-012
vt 0.624593 11.0645
f 76/96/29 77/134/29 75/133/29

v -230 2225 -7.72318e-012
vt 4.43514e-033 8.85827
f 78/135/29 77/134/29 76/96/29

v -221.513 2225 -7.72318e-012
vt 0.334141 8.85827
f 78/135/29 79/136/29 77/134/29

v -214.135 2168.96 -7.73446e-012
vt 0.624593 6.65206
f 78/135/29 80/137/29 79/136/29

f 53/101/29 80/137/29 78/135/29

f 53/101/29 54/107/29 80/137/29

usemtl FrontColor
vn 1.04119e-031 -1.65049e-016 1
v -184.221 2121.53 -7.73446e-012
vt 1.80231 4.78451
f 54/107/30 81/138/30 80/137/30

v -151.334 2078.67 -7.74574e-012
vt 3.0971 3.0971
f 54/107/30 82/139/30 81/138/30

f 55/108/30 82/139/30 54/107/30

v -108.473 2045.78 -7.74574e-012
vt 4.78451 1.80231
f 55/108/30 83/140/30 82/139/30

f 56/109/30 83/140/30 55/108/30

v -58.5618 2025.1 -7.75702e-012
vt 6.74953 0.98837
f 56/109/30 84/141/30 83/140/30

f 58/110/30 84/141/30 56/109/30

v -5 2018.05 -7.75702e-012
vt 8.85827 0.71075
f 84/141/30 58/110/30 85/142/30

f 58/110/30 60/113/30 85/142/30

f 60/113/30 58/110/30 59/111/30

v 48.5618 2025.1 -7.75702e-012
vt 10.967 0.98837
f 85/142/30 60/113/30 86/143/30

f 86/143/30 60/113/30 61/114/30

v 98.4735 2045.78 -7.74574e-012
vt 12.932 1.80231
f 86/143/30 61/114/30 87/144/30

f 87/144/30 61/114/30 62/115/30

v 141.334 2078.67 -7.74574e-012
vt 14.6194 3.0971
f 87/144/30 62/115/30 88/145/30

f 88/145/30 62/115/30 63/116/30

v 174.221 2121.53 -7.73446e-012
vt 15.9142 4.78451
f 88/145/30 63/116/30 89/146/30

f 89/146/30 63/116/30 64/117/30

v 194.895 2171.44 -7.72882e-012
vt 16.7282 6.74953
f 89/146/30 64/117/30 90/147/30

f 90/147/30 64/117/30 65/118/30

v 201.947 2225 -7.72318e-012
vt 17.0058 8.85827
f 90/147/30 65/118/30 91/148/30

f 91/148/30 65/118/30 66/119/30

v 194.895 2278.56 -7.7119e-012
vt 16.7282 10.967
f 91/148/30 66/119/30 92/149/30

v 174.221 2328.47 -7.70062e-012
vt 15.9142 12.932
f 92/149/30 66/119/30 93/150/30

f 93/150/30 66/119/30 67/120/30

v 141.334 2371.33 -7.69498e-012
vt 14.6194 14.6194
f 93/150/30 67/120/30 94/151/30

f 94/151/30 67/120/30 68/121/30

v 98.4735 2404.22 -7.68934e-012
vt 12.932 15.9142
f 94/151/30 68/121/30 95/152/30

f 95/152/30 68/121/30 69/123/30

v 48.5618 2424.9 -7.68934e-012
vt 10.967 16.7282
f 95/152/30 69/123/30 96/153/30

f 96/153/30 69/123/30 70/125/30

v -5 2431.95 -7.68934e-012
vt 8.85827 17.0058
f 96/153/30 70/125/30 97/154/30

f 72/129/30 97/154/30 70/125/30

v -58.5618 2424.9 -7.68934e-012
vt 6.74953 16.7282
f 72/129/30 98/155/30 97/154/30

f 73/131/30 98/155/30 72/129/30

v -108.473 2404.22 -7.68934e-012
vt 4.78451 15.9142
f 73/131/30 99/156/30 98/155/30

f 74/132/30 99/156/30 73/131/30

v -151.334 2371.33 -7.69498e-012
vt 3.0971 14.6194
f 74/132/30 100/157/30 99/156/30

f 75/133/30 100/157/30 74/132/30

v -184.221 2328.47 -7.70062e-012
vt 1.80231 12.932
f 75/133/30 101/158/30 100/157/30

f 77/134/30 101/158/30 75/133/30

v -204.895 2278.56 -7.7119e-012
vt 0.98837 10.967
f 77/134/30 102/159/30 101/158/30

f 79/136/30 102/159/30 77/134/30

v -211.947 2225 -7.72318e-012
vt 0.71075 8.85827
f 79/136/30 103/160/30 102/159/30

v -204.895 2171.44 -7.72882e-012
vt 0.98837 6.74953
f 79/136/30 104/161/30 103/160/30

f 80/137/30 104/161/30 79/136/30

f 80/137/30 81/138/30 104/161/30

usemtl qq295
vt 0.879329 0.280994
vn -1.27756e-032 -1.65298e-016 1
vt 0.0769134 0.386634
vt 0.923087 0.386634
f 81/162/31 90/163/31 104/164/31

vt 0.120671 0.280994
f 81/162/31 89/165/31 90/163/31

vt 0.809721 0.190279
f 82/166/31 89/165/31 81/162/31

vt 0.190279 0.190279
f 82/166/31 88/167/31 89/165/31

vt 0.719006 0.120671
f 83/168/31 88/167/31 82/166/31

vt 0.280994 0.120671
f 83/168/31 87/169/31 88/167/31

vt 0.613366 0.0769134
f 84/170/31 87/169/31 83/168/31

vt 0.386634 0.0769134
f 84/170/31 86/171/31 87/169/31

vt 0.5 0.0619885
f 86/171/31 84/170/31 85/172/31

vt 0.0619885 0.5
f 104/164/31 90/163/31 91/173/31

vt 0.938012 0.5
f 104/164/31 91/173/31 103/174/31

vt 0.0769134 0.613366
f 103/174/31 91/173/31 92/175/31

vt 0.923087 0.613366
f 103/174/31 92/175/31 102/176/31

vt 0.120671 0.719006
f 102/176/31 92/175/31 93/177/31

vt 0.879329 0.719006
f 102/176/31 93/177/31 101/178/31

vt 0.190279 0.809721
f 101/178/31 93/177/31 94/179/31

vt 0.809721 0.809721
f 101/178/31 94/179/31 100/180/31

vt 0.280994 0.879329
f 100/180/31 94/179/31 95/181/31

vt 0.719006 0.879329
f 100/180/31 95/181/31 99/182/31

vt 0.386634 0.923087
f 99/182/31 95/181/31 96/183/31

vt 0.613366 0.923087
f 99/182/31 96/183/31 98/184/31

vt 0.5 0.938012
f 98/184/31 96/183/31 97/185/31

usemtl FrontColor
f 72/129/30 70/125/30 71/127/30

usemtl M_0128_White
vn -1 0 -1.21328e-017
vt -2.00601e-015 6.47001
vt -1.55431e-015 8.78248
f 51/79/32 53/186/28 78/187/32

vt -0.393701 6.47001
f 53/186/28 51/79/32 52/188/28

vn -0.965926 0.258819 -9.9495e-018
f 78/187/32 50/81/33 51/79/32

vt -1.10994e-015 11.095
f 50/81/33 78/187/32 76/189/33

vt -1.11697e-015 10.4176
f 76/190/33 49/85/27 50/83/33

vt -6.92675e-016 12.7301
f 49/85/27 76/190/33 48/191/27

usemtl M_0016_Tomato
vt 8.85827 17.7165
f 43/128/29 39/126/29 41/192/29

usemtl M_0128_White
vt -4.13804e-015 -3.63782
vn -0.5 -0.866025 1.59513e-017
vt -0.393701 -5.9503
vt -5.07084e-015 -5.9503
f 57/193/34 16/194/11 19/195/11

vt -0.393701 -3.63782
f 16/194/11 57/193/34 14/196/34

vt -1.76508e-015 -0.478929
vt -0.393701 -2.7914
vt -1.50813e-015 -2.7914
f 10/197/8 14/198/34 57/199/34

vt -0.393701 -0.478929
f 14/198/34 10/197/8 12/200/8

usemtl FrontColor
f 46/95/9 32/94/9 34/122/9

f 46/95/9 34/122/9 36/124/9

f 46/95/9 36/124/9 44/130/9

f 44/130/9 36/124/9 38/126/9

f 44/130/9 38/126/9 42/128/9

f 42/128/9 38/126/9 40/192/9

