# Alias OBJ Model File
# Exported from SketchUp, (c) 2000-2012 Trimble Navigation Limited
# File units = millimeters

mtllib trafik_levha_ileriden_saga_mecburi_yol.mtl

g Mesh1 Group2 Group1 Model

usemtl FrontColor
v -9.02389e-014 0 -0
vt -0.393701 0.393701
vn -7.06952e-031 -1 3.94795e-015
v -10 3.94795e-014 10
vt 1.09882e-045 5.55112e-017
v -10 0 -1.40998e-015
vt 0 0.393701
f 1/1/1 2/2/1 3/3/1

v -9.02389e-014 3.94795e-014 10
vt -0.393701 -6.13635e-030
f 2/2/1 1/1/1 4/4/1

vt 0.393701 0
vn 1 0 -0
v -9.02389e-014 2000 10
vt 3.05977e-013 78.7402
vt 0 1.55431e-015
f 1/5/2 5/6/2 4/7/2

v -9.02389e-014 2000 -7.77183e-012
vt 0.393701 78.7402
f 5/6/2 1/5/2 6/8/2

vt -0.393701 1.52989e-015
vn 1.40998e-016 -3.88591e-015 -1
v -10 2000 -7.77324e-012
vt 5.55112e-017 78.7402
vt -0.393701 78.7402
f 1/9/3 7/10/3 6/11/3

vt 5.55112e-017 1.52989e-015
f 7/10/3 1/9/3 3/12/3

vt -0.393701 0
vn -1 0 -0
v -10 2000 10
vt -3.06033e-013 78.7402
f 3/13/4 8/14/4 7/11/4

vt -5.55112e-017 1.55431e-015
f 8/14/4 3/13/4 2/15/4

vt -7.82698e-033 1.55431e-015
vn -1.40998e-016 3.88591e-015 1
vt -4.31501e-029 78.7402
f 2/16/5 5/8/5 8/17/5

vt 0.393701 1.55431e-015
f 5/8/5 2/16/5 4/18/5

vt 0.393701 3.05977e-013
vn 0 1 -0
vt 0 3.06033e-013
f 5/19/6 7/3/6 8/20/6

vt 0.393701 0.393701
f 7/3/6 5/19/6 6/21/6

g Mesh2 Group3 Group1 Model

usemtl M_0128_White
v 189.879 2331.35 10
vt -2.39914e-016 11.0088
vn 0.86211 0.50672 -9.75968e-018
v 189.879 2331.35 -7.95936e-012
vt -0.393701 11.0088
v 154.118 2377.1 10
vt -3.16622e-016 13.2949
vn 0.700755 0.713402 -1.37405e-017
f 9/22/7 10/23/7 11/24/8

vt -2.31691e-016 12.4804
v 212.359 2278.07 10
vt -2.24498e-016 10.2038
vn 0.96475 0.263167 -5.06872e-018
vt -0.393701 12.4804
f 9/25/7 12/26/9 10/27/7

usemtl qq293
vt 0.09662 0.736618
vn 0 1.92605e-017 1
v -222.359 2278.07 10
vt 0.928351 0.622483
vt 0.0512638 0.622483
f 9/28/10 13/29/10 12/30/10

v -199.879 2331.35 10
vt 0.882995 0.736618
f 14/31/10 13/29/10 9/28/10

usemtl M_0128_White
vt 8.04975e-017 3.31547
vn -0.96475 0.263167 -5.06872e-018
vt 8.76903e-017 5.59204
vn -0.86211 0.50672 -9.75968e-018
v -222.359 2278.07 -7.95936e-012
vt 0.393701 3.31547
f 13/32/11 14/33/12 15/34/11

v -199.879 2331.35 -7.95936e-012
vt 0.393701 5.59204
f 16/35/12 15/34/11 14/33/12

vt -16.5317 13.0451
vn -6.51591e-033 -1.92605e-017 -1
vt -1.18692 13.0451
vt -17.4167 10.9476
f 16/36/13 10/37/13 15/38/13

v 154.118 2377.1 -7.96077e-012
vt -2.59483 14.8463
f 17/39/13 10/37/13 16/36/13

vt -0.393701 13.2949
f 17/40/8 11/24/8 10/23/7

vt -3.43905e-016 11.005
vt -0.393701 11.005
v 107.513 2412.2 10
vt -4.46333e-016 13.3021
vn 0.493305 0.869856 -1.67538e-017
f 11/41/8 17/42/8 18/43/14

v 107.513 2412.2 -7.96218e-012
vt -0.393701 13.3021
f 19/44/14 18/43/14 17/42/8

vt -5.42891e-016 10.2161
vt -0.393701 10.2161
v 53.2411 2434.27 10
vt -6.44102e-016 12.5227
vn 0.254528 0.967065 -1.86261e-017
f 18/45/14 19/46/14 20/47/15

v 53.2411 2434.27 -7.96218e-012
vt -0.393701 12.5227
f 21/48/15 20/47/15 19/46/14

vt -1.31167e-015 8.70355
vt -0.393701 8.70355
v -5 2441.8 10
vt -1.65339e-015 11.0156
vn 0 1 -1.92605e-017
f 20/49/15 21/50/15 22/51/16

v -5 2441.8 -7.96218e-012
vt -0.393701 11.0156
f 23/52/16 22/51/16 21/50/15

vt -9.87257e-016 -6.5569
vt 0.393701 -6.5569
v -63.2411 2434.27 10
vt -1.32898e-015 -8.86893
vn -0.254528 0.967065 -1.86261e-017
f 22/53/16 23/54/16 24/55/17

v -63.2411 2434.27 -7.96218e-012
vt 0.393701 -8.86893
f 25/56/17 24/55/17 23/54/16

vt -1.95194e-016 -3.89097
vt 0.393701 -3.89097
v -117.513 2412.2 10
vt -2.96405e-016 -6.19755
vn -0.493305 0.869856 -1.67538e-017
f 24/57/17 25/58/17 26/59/18

v -117.513 2412.2 -7.96218e-012
vt 0.393701 -6.19755
f 27/60/18 26/59/18 25/58/17

vt -6.73078e-018 -0.850663
vt 0.393701 -0.850663
v -164.118 2377.1 10
vt -1.09158e-016 -3.14777
vn -0.700755 0.713402 -1.37405e-017
f 26/61/18 27/62/18 28/63/19

v -164.118 2377.1 -7.96077e-012
vt 0.393701 -3.14777
f 29/64/19 28/63/19 27/62/18

vt 0.393701 2.38288
vt 0.393701 0.0967546
vt 4.98622e-017 2.38288
f 29/65/19 16/66/12 28/67/19

vt -15.1238 14.8463
f 29/68/13 17/39/13 16/36/13

vt -4.42966 16.2284
f 19/69/13 17/39/13 29/68/13

vt -13.289 16.2284
f 27/70/13 19/69/13 29/68/13

vt -6.56635 17.0972
f 21/71/13 19/69/13 27/70/13

vt -11.1523 17.0972
f 25/72/13 21/71/13 27/70/13

vt -8.85931 17.3935
f 23/73/13 21/71/13 25/72/13

vt -2.68455e-017 0.0967546
f 14/74/12 28/67/19 16/66/12

usemtl qq293
vt 0.810844 0.834629
vt 0.168771 0.834629
f 28/75/10 14/31/10 11/76/10

f 11/76/10 14/31/10 9/28/10

vt 0.716815 0.909835
f 26/77/10 28/75/10 11/76/10

vt 0.262801 0.909835
f 18/78/10 26/77/10 11/76/10

vt 0.607315 0.957111
f 24/79/10 26/77/10 18/78/10

vt 0.3723 0.957111
f 20/80/10 24/79/10 18/78/10

vt 0.489808 0.973236
f 22/81/10 24/79/10 20/80/10

usemtl M_0128_White
v 212.359 2278.07 -7.95936e-012
vt -0.301874 10.9476
f 10/37/13 30/82/13 15/38/13

vt -0.393701 10.2038
f 30/83/9 10/27/7 12/26/9

vt -2.22824e-016 10.8906
v 216.193 2249.48 -7.95795e-012
vt -0.393701 9.7551
vn 0.991126 0.132923 -2.56016e-018
vt -0.393701 10.8906
f 12/84/9 31/85/20 30/86/9

v 220.026 2220.9 -7.95795e-012
vt -0.393701 8.61958
vn 1 -4.76069e-016 9.13291e-033
f 31/85/20 12/84/9 32/87/21

v 220.026 2220.9 10
vt -1.66533e-016 8.61958
f 33/88/21 32/87/21 12/84/9

v 212.359 2163.73 -7.95654e-012
vt -0.393701 6.34854
vn 0.96475 -0.263167 5.06872e-018
f 32/87/21 33/88/21 34/89/22

v 212.359 2163.73 10
vt -1.10243e-016 6.34854
f 35/90/22 34/89/22 33/88/21

vt -0.393701 5.82146
vt -1.08569e-016 5.82146
v 189.879 2110.45 -7.95513e-012
vt -0.393701 3.54489
vn 0.86211 -0.50672 9.75968e-018
f 34/91/22 35/92/22 36/93/23

v 189.879 2110.45 10
vt -4.58649e-017 3.54489
f 37/94/23 36/93/23 35/92/22

vt -3.76416e-017 2.69496
v 154.118 2064.7 10
vt -1.64451e-017 0.408838
vn 0.700755 -0.713402 1.37405e-017
vt -0.393701 2.69496
f 37/95/23 38/96/24 36/97/23

usemtl qq293
vt 0.09662 0.263382
v -199.879 2110.45 10
vt 0.882995 0.263382
vt 0.168771 0.165371
f 37/98/10 39/99/10 38/100/10

vt 0.0512638 0.377517
f 35/101/10 39/99/10 37/98/10

v -222.359 2163.73 10
vt 0.928351 0.377517
f 40/102/10 39/99/10 35/101/10

usemtl M_0128_White
vt 1.89865e-016 10.4332
vn -0.86211 -0.50672 9.75968e-018
vt 2.52569e-016 12.7098
vn -0.96475 -0.263167 5.06872e-018
v -199.879 2110.45 -7.95513e-012
vt 0.393701 10.4332
f 39/103/25 40/104/26 41/105/25

v -222.359 2163.73 -7.95654e-012
vt 0.393701 12.7098
f 42/106/26 41/105/25 40/104/26

vt -17.4167 6.44587
vt -0.301874 6.44587
vt -16.5317 4.34838
f 42/107/13 34/108/13 41/109/13

vt 2.56532e-033 8.69675
f 32/110/13 34/108/13 42/107/13

v -230.026 2220.9 -7.95795e-012
vt -17.7186 8.69675
f 43/111/13 32/110/13 42/107/13

vt -0.150937 9.8222
f 31/112/13 32/110/13 43/111/13

f 15/38/13 31/112/13 43/111/13

f 30/82/13 31/112/13 15/38/13

vt 0.393701 8.5354
vt 0.393701 6.26437
vn -1 -6.72098e-016 1.30193e-032
vt 1.77056e-016 8.5354
f 15/113/11 43/114/27 13/115/11

v -230.026 2220.9 10
vt 1.20765e-016 6.26437
f 44/116/27 13/115/11 43/114/27

usemtl qq293
vt 0.943822 0.5
vt 0.0357937 0.5
f 13/29/10 44/117/10 33/118/10

f 33/118/10 44/117/10 35/101/10

f 44/117/10 40/102/10 35/101/10

usemtl M_0128_White
vt 1.56011e-016 8.70376
vt 2.12302e-016 10.9748
vt 0.393701 8.70376
f 40/119/26 44/120/27 42/121/26

vt 0.393701 10.9748
f 43/122/27 42/121/26 44/120/27

usemtl qq293
f 12/30/10 13/29/10 33/118/10

usemtl M_0128_White
vt -1.18692 4.34838
f 34/108/13 36/123/13 41/109/13

v -164.118 2064.7 -7.95513e-012
vt -15.1238 2.54722
f 41/109/13 36/123/13 45/124/13

v 154.118 2064.7 -7.95513e-012
vt -2.59483 2.54722
f 36/123/13 46/125/13 45/124/13

vt -0.393701 0.408838
f 46/126/24 36/97/23 38/96/24

vt -0.393701 -0.540072
vt 1.08385e-017 -0.540072
v 107.513 2029.59 -7.95372e-012
vt -0.393701 -2.83718
vn 0.493305 -0.869856 1.67538e-017
f 46/127/24 38/128/24 47/129/28

v 107.513 2029.59 10
vt 1.13266e-016 -2.83718
f 48/130/28 47/129/28 38/128/24

vt -0.393701 -3.66454
vt 2.09824e-016 -3.66454
v 53.2411 2007.53 -7.95372e-012
vt -0.393701 -5.97112
vn 0.254528 -0.967065 1.86261e-017
f 47/131/28 48/132/28 49/133/29

v 53.2411 2007.53 10
vt 3.11035e-016 -5.97112
f 50/134/29 49/133/29 48/132/28

vt -0.393701 -6.47421
vt 9.78599e-016 -6.47421
v -5 2000 -7.95372e-012
vt -0.393701 -8.78624
vn -0 -1 1.92605e-017
f 49/135/29 50/136/29 51/137/30

v -5 2000 10
vt 1.32032e-015 -8.78624
f 52/138/30 51/137/30 50/136/29

vt 0.393701 8.78624
vt 1.32032e-015 8.78624
v -63.2411 2007.53 -7.95372e-012
vt 0.393701 11.0983
vn -0.254528 -0.967065 1.86261e-017
f 51/139/30 52/140/30 53/141/31

v -63.2411 2007.53 10
vt 1.66205e-015 11.0983
f 54/142/31 53/141/31 52/140/30

vt 0.393701 10.4425
vt 5.28261e-016 10.4425
v -117.513 2029.59 -7.95372e-012
vt 0.393701 12.7491
vn -0.493305 -0.869856 1.67538e-017
f 53/143/31 54/144/31 55/145/32

v -117.513 2029.59 10
vt 6.29472e-016 12.7491
f 56/146/32 55/145/32 54/144/31

vt 0.393701 11.3156
vt 3.39798e-016 11.3156
vt 0.393701 13.6127
vn -0.700755 -0.713402 1.37405e-017
f 55/147/32 56/148/32 45/149/33

v -164.118 2064.7 10
vt 4.42225e-016 13.6127
f 57/150/33 45/149/33 56/148/32

vt 2.83205e-016 11.3208
vt 3.04401e-016 13.607
vt 0.393701 11.3208
f 57/151/33 39/152/25 45/153/33

usemtl qq293
vt 0.810844 0.165371
f 39/99/10 57/154/10 38/100/10

vt 0.262801 0.0901653
f 38/100/10 57/154/10 48/155/10

vt 0.716815 0.0901653
f 57/154/10 56/156/10 48/155/10

vt 0.3723 0.0428888
f 48/155/10 56/156/10 50/157/10

vt 0.607315 0.0428888
f 56/156/10 54/158/10 50/157/10

vt 0.489808 0.0267637
f 52/159/10 50/157/10 54/158/10

usemtl M_0128_White
vt 0.393701 13.607
f 41/160/25 45/153/33 39/152/25

vt -13.289 1.16514
f 45/124/13 46/125/13 55/161/13

vt -4.42966 1.16514
f 46/125/13 47/162/13 55/161/13

vt -11.1523 0.296335
f 55/161/13 47/162/13 53/163/13

vt -6.56635 0.296335
f 47/162/13 49/164/13 53/163/13

vt -8.85931 7.58286e-018
f 51/165/13 53/163/13 49/164/13

