# Alias OBJ Model File
# Exported from SketchUp, (c) 2000-2012 Trimble Navigation Limited
# File units = millimeters

mtllib zemin_yaya_gecidi.mtl

g Mesh1 Group1 Model

usemtl zemin_yaya_gecidi
v 1028.88 0 -2171.91
vt 1 1
vn 0 -1 -0
v -1140.9 0 2167.64
vt 0 0
v -1140.9 0 -2171.91
vt 0 1
f 1/1/1 2/2/1 3/3/1

v 1028.88 0 2167.64
vt 1 0
f 2/2/1 1/1/1 4/4/1

vn 1 0 -0
v 1028.88 5 2167.64
f 1/1/2 5/4/2 4/4/2

v 1028.88 5 -2171.91
f 5/4/2 1/1/2 6/1/2

vn 0 0 -1
v -1140.9 5 -2171.91
f 1/1/3 7/3/3 6/1/3

f 7/3/3 1/1/3 3/3/3

vn -1 0 -0
f 2/2/4 7/3/4 3/3/4

v -1140.9 5 2167.64
f 7/3/4 2/2/4 8/2/4

vn 0 0 1
f 2/2/5 5/4/5 8/2/5

f 5/4/5 2/2/5 4/4/5

vn 0 1 -0
f 5/4/6 7/3/6 8/2/6

f 7/3/6 5/4/6 6/1/6

