# Alias OBJ Model File
# Exported from SketchUp, (c) 2000-2012 Trimble Navigation Limited
# File units = millimeters

mtllib trafik_levha_yaya_gecidi.mtl

g Mesh1 Group2 Group1 Model

usemtl FrontColor
v 10 -4.51195e-014 -10
vt -0.393701 0.393701
vn -7.06952e-031 -1 3.94795e-015
v 0 -5.63993e-015 -0
vt 1.09882e-045 5.55112e-017
v 0 -4.51195e-014 -10
vt 0 0.393701
f 1/1/1 2/2/1 3/3/1

v 10 -5.63993e-015 1.40998e-015
vt -0.393701 -6.13635e-030
f 2/2/1 1/1/1 4/4/1

vt 0.393701 0
vn 1 0 -0
v 10 2000 -7.77042e-012
vt 3.05977e-013 78.7402
vt 0 1.55431e-015
f 1/5/2 5/6/2 4/7/2

v 10 2000 -10
vt 0.393701 78.7402
f 5/6/2 1/5/2 6/8/2

vt -0.393701 1.52989e-015
vn 1.40998e-016 -3.88591e-015 -1
v 0 2000 -10
vt 5.55112e-017 78.7402
vt -0.393701 78.7402
f 1/9/3 7/10/3 6/11/3

vt 5.55112e-017 1.52989e-015
f 7/10/3 1/9/3 3/12/3

vt -0.393701 0
vn -1 0 -0
v 0 2000 -7.77183e-012
vt -3.06033e-013 78.7402
f 3/13/4 8/14/4 7/11/4

vt -5.55112e-017 1.55431e-015
f 8/14/4 3/13/4 2/15/4

vt -7.82698e-033 1.55431e-015
vn -1.40998e-016 3.88591e-015 1
vt -4.31501e-029 78.7402
f 2/16/5 5/8/5 8/17/5

vt 0.393701 1.55431e-015
f 5/8/5 2/16/5 4/18/5

vt 0.393701 3.05977e-013
vn 0 1 -0
vt 0 3.06033e-013
f 5/19/6 7/3/6 8/20/6

vt 0.393701 0.393701
f 7/3/6 5/19/6 6/21/6

g Mesh2 Group3 Group1 Model

usemtl M_0128_White
v 470.495 2067.35 -7.91353e-012
vt -5.18228e-016 2.40732
vn 0.864557 0.502535 -1.95786e-015
v 470.495 2067.35 -10
vt -0.393701 2.40732
v 46.8733 2796.14 -1.29669e-011
vt -2.37239e-013 35.5951
f 9/22/7 10/23/7 11/24/7

vt 8.1295e-018 2.65151
vn 0.985266 0.171031 3.50013e-017
v 476.308 2033.86 -7.91353e-012
vt 0 1.3135
vt -0.393701 2.65151
f 9/25/8 12/26/8 10/27/8

usemtl qq303
vt 0.0296818 0.137436
vn -1.01491e-015 5.64202e-015 1
v -460.684 2061.62 -8.63544e-012
vt 0.964863 0.131013
vt 0.0238443 0.0998859
f 9/28/9 13/29/9 12/30/9

v -33.218 2801.9 -1.29669e-011
vt 0.53556 0.961173
f 14/31/9 13/29/9 9/28/9

usemtl M_0128_White
vt -1.29201e-013 -16.346
vn -0.865991 0.500059 -3.70025e-015
vt 1.13238e-013 17.3087
v -460.684 2061.62 -10
vt 0.393701 -16.346
f 13/32/10 14/33/10 15/34/10

v -33.218 2801.9 -10
vt 0.393701 17.3087
f 16/35/10 15/34/10 14/33/10

vt -20.0601 31.5707
vn 4.27703e-016 -5.98854e-015 -1
vt -0.22884 2.65144
vt -36.8894 2.42595
f 16/36/11 10/37/11 15/38/11

v 46.8733 2796.14 -10
vt -16.9069 31.3442
f 17/39/11 10/37/11 16/36/11

vt -0.393701 35.5951
f 17/40/7 11/24/7 10/23/7

vt -2.82274e-013 33.8418
vn 0.688489 0.725247 -3.3931e-015
vt -0.393701 33.8418
v 22.5295 2819.25 -1.29669e-011
vt -2.86998e-013 35.1633
f 11/41/12 17/42/12 18/43/12

v 22.5295 2819.25 -10
vt -0.393701 35.1633
f 19/44/12 18/43/12 17/42/12

vt 17.8653 1.69742e-014
vn 0 1 -5.64202e-015
vt 17.8653 0.393701
v -9.18288 2819.25 -1.29669e-011
vt 19.1138 1.69742e-014
f 18/45/13 19/46/13 20/47/13

v -9.18288 2819.25 -10
vt 19.1138 0.393701
f 21/48/13 20/47/13 19/46/13

vt 3.02116e-014 3.38641
vn -0.585429 0.810724 -5.16828e-015
vt 0.393701 3.38641
vt 2.18578e-014 2.21922
f 20/49/14 21/50/14 14/51/14

vt 0.393701 2.21922
f 16/52/14 14/51/14 21/50/14

vt -19.1138 32.254
vt -17.8653 32.254
f 21/53/11 19/54/11 16/36/11

f 19/54/11 17/39/11 16/36/11

usemtl qq303
vt 0.511422 0.980636
vt 0.479573 0.980636
f 20/55/9 14/31/9 18/56/9

vt 0.455124 0.95472
f 18/56/9 14/31/9 11/57/9

f 11/57/9 14/31/9 9/28/9

usemtl M_0128_White
v 476.308 2033.86 -10
vt -1.68387e-016 1.33314
f 10/37/11 22/58/11 15/38/11

vt -0.393701 1.3135
f 22/59/8 10/27/8 12/26/8

vt 0 1.12645
vn 0.844956 -0.534836 3.87512e-015
v 460.808 2009.38 -7.91353e-012
vt 2.79849e-015 -0.0144661
vt -0.393701 1.12645
f 12/60/15 23/61/15 22/62/15

usemtl qq303
v -451.435 2012.01 -7.91353e-012
vt 0.955574 0.0753761
vt 0.0394101 0.0724267
f 12/30/9 24/63/9 23/64/9

v -460.684 2031.6 -9.35735e-012
vt 0.964863 0.0973477
f 25/65/9 24/63/9 12/30/9

usemtl M_0128_White
vt 6.02131e-014 16.0199
vn -0.904301 -0.426896 1.49077e-015
vt 1.17657e-013 16.8729
v -451.435 2012.01 -10
vt 0.393701 16.0199
f 24/66/16 25/67/16 26/68/16

v -460.684 2031.6 -10
vt 0.393701 16.8729
f 27/69/16 26/68/16 25/67/16

vt -36.8894 1.24403
vt -36.5253 0.472667
f 27/70/11 22/58/11 26/71/11

f 15/38/11 22/58/11 27/70/11

vt 0.393701 1.24403
vn -1 2.44059e-029 -1.01491e-015
vt 1.94038e-014 1.24403
vt 0.393701 2.42595
f 27/72/17 25/73/17 15/74/17

vt -9.0179e-015 2.42595
f 13/75/17 15/74/17 25/73/17

usemtl qq303
f 13/29/9 25/65/9 12/30/9

usemtl M_0128_White
v 460.808 2009.38 -10
vt -0.610202 0.369123
f 22/58/11 28/76/11 26/71/11

vt -0.393701 -0.0144661
f 28/77/15 22/62/15 23/61/15

vt -0.393701 -0.432722
vn 0.36607 -0.930587 5.62192e-015
vt 9.37119e-015 -0.432722
v 436.974 2000 -10
vt -0.393701 -1.44106
f 28/78/18 23/79/18 29/80/18

v 436.974 2000 -8.63544e-012
vt -4.63982e-015 -1.44106
f 30/81/18 29/80/18 23/79/18

vt -1.54855 0.393701
vn 4.71445e-030 -1 5.64202e-015
vt -1.54855 2.84217e-014
v -426.974 2000 -10
vt -35.5623 0.393701
f 29/82/19 30/83/19 31/84/19

v -426.974 2000 -7.91353e-012
vt -35.5623 -9.45921e-043
f 32/85/19 31/84/19 30/83/19

vt 0.393701 31.9242
vn -0.440611 -0.897698 4.61765e-015
vt 3.72696e-013 31.9242
vt 0.393701 32.9969
f 31/86/20 32/87/20 26/88/20

vt 3.82789e-013 32.9969
f 24/89/20 26/88/20 32/87/20

usemtl qq303
vt 0.931009 0.0619126
vt 0.0633466 0.0619126
f 32/90/9 30/91/9 24/63/9

f 23/64/9 24/63/9 30/91/9

usemtl M_0128_White
vt -35.5623 2.35769e-015
f 26/71/11 28/76/11 31/92/11

vt -1.54855 2.35769e-015
f 29/93/11 31/92/11 28/76/11

