# Alias OBJ Model File
# Exported from SketchUp, (c) 2000-2012 Trimble Navigation Limited
# File units = millimeters

mtllib trafik_levha_hiz_sinirlamasi_sonu.mtl

g Mesh1 Group2 Group1 Model

usemtl FrontColor
v 0 -3.94795e-014 -10
vt -0.393701 0.393701
vn -7.06952e-031 -1 3.94795e-015
v -10 0 -1.40998e-015
vt 1.09882e-045 5.55112e-017
v -10 -3.94795e-014 -10
vt 0 0.393701
f 1/1/1 2/2/1 3/3/1

v 0 0 -0
vt -0.393701 -6.13635e-030
f 2/2/1 1/1/1 4/4/1

vt 0.393701 0
vn 1 0 -0
v 0 2000 -7.77183e-012
vt 3.05977e-013 78.7402
vt 0 1.55431e-015
f 1/5/2 5/6/2 4/7/2

v 0 2000 -10
vt 0.393701 78.7402
f 5/6/2 1/5/2 6/8/2

vt -0.393701 1.52989e-015
vn 1.40998e-016 -3.88591e-015 -1
v -10 2000 -10
vt 5.55112e-017 78.7402
vt -0.393701 78.7402
f 1/9/3 7/10/3 6/11/3

vt 5.55112e-017 1.52989e-015
f 7/10/3 1/9/3 3/12/3

vt -0.393701 0
vn -1 0 -0
v -10 2000 -7.77324e-012
vt -3.06033e-013 78.7402
f 3/13/4 8/14/4 7/11/4

vt -5.55112e-017 1.55431e-015
f 8/14/4 3/13/4 2/15/4

vt -7.82698e-033 1.55431e-015
vn -1.40998e-016 3.88591e-015 1
vt -4.31501e-029 78.7402
f 2/16/5 5/8/5 8/17/5

vt 0.393701 1.55431e-015
f 5/8/5 2/16/5 4/18/5

vt 0.393701 3.05977e-013
vn 0 1 -0
vt 0 3.06033e-013
f 5/19/6 7/3/6 8/20/6

vt 0.393701 0.393701
f 7/3/6 5/19/6 6/21/6

g Mesh2 Group3 Group1 Model

usemtl M_0128_White
v -200.401 2112.82 -8.49585e-012
vt 8.52173e-014 10.4468
vn -0.866025 -0.5 4.0466e-015
v -222.942 2167.23 -8.85681e-012
vt 1.02469e-013 12.7658
vn -0.965926 -0.258819 2.23034e-015
v -200.401 2112.82 -10
vt 0.393701 10.4468
f 9/22/7 10/23/8 11/24/7

usemtl qq300
vt 0.966257 0.374668
vn 2.62085e-016 7.63925e-015 1
vt 0.918034 0.257877
v 190.401 2112.82 -8.49585e-012
vt 0.0819658 0.257877
f 10/25/9 9/26/9 12/27/9

v 154.545 2066.09 -8.1349e-012
vt 0.158677 0.157586
f 12/27/9 9/26/9 13/28/9

v -164.545 2066.09 -8.1349e-012
vt 0.841323 0.157586
f 9/26/9 14/29/9 13/28/9

usemtl M_0128_White
vt 1.07076e-013 11.2956
vn -0.707107 -0.707107 5.58709e-015
vt 1.29932e-013 13.6146
v -164.545 2066.09 -10
vt 0.393701 11.2956
f 14/30/10 9/31/7 15/32/10

vt 0.393701 13.6146
f 11/33/7 15/32/10 9/31/7

vt -16.576 4.44154
vn -2.62085e-016 -7.63925e-015 -1
v 190.401 2112.82 -10
vt -1.19011 4.44154
vt -15.1644 2.60179
f 11/34/11 16/35/11 15/36/11

v 212.942 2167.23 -10
vt -0.302683 6.58397
f 17/37/11 16/35/11 11/34/11

vt -0.393701 5.96696
vn 0.965926 -0.258819 1.72403e-015
v 212.942 2167.23 -9.03729e-012
vt -4.88595e-014 5.96696
vt -0.393701 3.64801
vn 0.866025 -0.5 3.59265e-015
f 17/38/12 18/39/12 16/40/13

vt -4.95129e-014 6.48813
vt -0.393701 6.48813
v 220.63 2225.63 -9.39824e-012
vt -6.39488e-014 8.80708
vn 1 7.9786e-016 -2.62085e-016
f 18/41/12 17/42/12 19/43/14

v 220.63 2225.63 -10
vt -0.393701 8.80708
f 20/44/14 19/43/14 17/42/12

v 212.942 2284.03 -9.93968e-012
vt -8.56489e-014 11.126
vn 0.965926 0.258819 -2.23034e-015
f 19/43/14 20/44/14 21/45/15

v 212.942 2284.03 -10
vt -0.393701 11.126
f 22/46/15 21/45/15 20/44/14

vt -8.63022e-014 10.4468
vt -0.393701 10.4468
v 190.401 2338.45 -1.03006e-011
vt -1.03554e-013 12.7658
vn 0.866025 0.5 -4.0466e-015
f 21/47/15 22/48/15 23/49/16

v 190.401 2338.45 -10
vt -0.393701 12.7658
f 24/50/16 23/49/16 22/48/15

vt -1.06764e-013 11.2956
vt -0.393701 11.2956
v 154.545 2385.17 -1.06616e-011
vt -1.2962e-013 13.6146
vn 0.707107 0.707107 -5.58709e-015
f 23/51/16 24/52/16 25/53/17

v 154.545 2385.17 -10
vt -0.393701 13.6146
f 26/54/17 25/53/17 24/52/16

vt -1.40271e-013 11.2956
v 107.815 2421.03 -1.10225e-011
vt -1.7328e-013 13.6146
vn 0.5 0.866025 -6.74683e-015
f 25/55/17 26/52/17 27/56/18

v 107.815 2421.03 -10
f 28/54/18 27/56/18 26/52/17

vt -2.10976e-013 10.4468
v 53.3974 2443.57 -1.10225e-011
vt -2.5105e-013 12.7658
vn 0.258819 0.965926 -7.44678e-015
f 27/57/18 28/48/18 29/58/19

v 53.3974 2443.57 -10
f 30/50/19 29/58/19 28/48/18

vt -5.11663e-013 8.80708
v -5 2451.26 -1.10225e-011
vt -6.45674e-013 11.126
vn 3.20544e-015 1 -7.63925e-015
f 29/59/19 30/44/19 31/60/20

v -5 2451.26 -10
f 32/46/20 31/60/20 30/44/19

vt -3.85222e-013 -6.48813
vt 0.393701 -6.48813
v -63.3974 2443.57 -1.10225e-011
vt -5.18027e-013 -8.80708
vn -0.258819 0.965926 -7.31111e-015
f 31/61/20 32/62/20 33/63/21

v -63.3974 2443.57 -10
vt 0.393701 -8.80708
f 34/64/21 33/63/21 32/62/20

vt -7.54021e-014 -3.64801
vt 0.393701 -3.64801
v -117.815 2421.03 -1.08421e-011
vt -1.21458e-013 -5.96696
vn -0.5 0.866025 -6.48474e-015
f 33/65/21 34/66/21 35/67/22

v -117.815 2421.03 -10
vt 0.393701 -5.96696
f 36/68/22 35/67/22 34/66/21

vt -8.37089e-015 -0.48027
vt 0.393701 -0.48027
v -164.545 2385.17 -1.06616e-011
vt -3.331e-014 -2.79922
vn -0.707107 0.707107 -5.21644e-015
f 35/69/22 36/70/22 37/71/23

v -164.545 2385.17 -10
vt 0.393701 -2.79922
f 38/72/23 37/71/23 36/70/22

vt 0.393701 2.79922
v -200.401 2338.45 -10
vt 0.393701 0.48027
vn -0.866025 0.5 -3.59265e-015
vt 2.87707e-014 2.79922
f 38/73/23 39/74/24 37/75/23

vt -15.1644 15.1644
vt -2.60179 15.1644
vt -16.576 13.3246
f 38/76/11 26/77/11 39/78/11

vt -4.44154 16.576
f 28/79/11 26/77/11 38/76/11

vt -13.3246 16.576
f 36/80/11 28/79/11 38/76/11

vt -6.58397 17.4635
f 30/81/11 28/79/11 36/80/11

vt -11.1822 17.4635
f 34/82/11 30/81/11 36/80/11

vt -8.88307 17.7661
f 32/83/11 30/81/11 34/82/11

vt -1.19011 13.3246
f 26/77/11 24/84/11 39/78/11

v -222.942 2284.03 -10
vt -17.4635 11.1822
f 39/78/11 24/84/11 40/85/11

vt -0.302683 11.1822
f 24/84/11 22/86/11 40/85/11

v -230.63 2225.63 -10
vt -17.7661 8.88307
f 40/85/11 22/86/11 41/87/11

vt 1.03183e-016 8.88307
f 22/86/11 20/88/11 41/87/11

v -222.942 2167.23 -10
vt -17.4635 6.58397
f 41/87/11 20/88/11 42/89/11

f 20/88/11 17/37/11 42/89/11

f 42/89/11 17/37/11 11/34/11

vt 0.393701 12.7658
f 42/90/8 11/24/7 10/23/8

vt 6.47729e-014 8.80708
v -230.63 2225.63 -9.21777e-012
vt 7.93675e-014 11.126
vn -1 8.11857e-016 2.62085e-016
vt 0.393701 8.80708
f 10/91/8 43/92/25 42/93/8

usemtl qq300
vt 0.982704 0.5
vt 0.0337435 0.374668
f 43/94/9 10/25/9 18/95/9

f 18/95/9 10/25/9 12/27/9

usemtl M_0128_White
vt -2.49678e-014 3.64801
f 12/96/13 16/40/13 18/39/12

vt -0.393701 2.79922
vt -2.17575e-014 2.79922
v 154.545 2066.09 -10
vt -0.393701 0.48027
vn 0.707107 -0.707107 5.21644e-015
f 16/97/13 12/98/13 44/99/26

vt 3.58444e-016 0.48027
f 13/100/26 44/99/26 12/98/13

vt -0.393701 -0.48027
vt 1.10098e-014 -0.48027
v 107.815 2030.23 -10
vt -0.393701 -2.79922
vn 0.5 -0.866025 6.48474e-015
f 44/101/26 13/102/26 45/103/27

v 107.815 2030.23 -7.95442e-012
vt 3.5949e-014 -2.79922
f 46/104/27 45/103/27 13/102/26

vt -0.393701 -3.64801
vt 7.36448e-014 -3.64801
v 53.3974 2007.69 -10
vt -0.393701 -5.96696
vn 0.258819 -0.965926 7.31111e-015
f 45/105/27 46/106/27 47/107/28

v 53.3974 2007.69 -7.77394e-012
vt 1.19701e-013 -5.96696
f 48/108/28 47/107/28 46/106/27

vt -0.393701 -6.48813
vt 3.80315e-013 -6.48813
v -5 2000 -10
vt -0.393701 -8.80708
vn 3.20544e-015 -1 7.63925e-015
f 47/109/28 48/110/28 49/111/29

v -5 2000 -7.77394e-012
vt 5.1312e-013 -8.80708
f 50/112/29 49/111/29 48/110/28

vt 5.17776e-013 8.80708
v -63.3974 2007.69 -10
vt 0.393701 11.126
vn -0.258819 -0.965926 7.44678e-015
f 49/93/29 50/113/29 51/114/30

v -63.3974 2007.69 -7.77394e-012
vt 6.51786e-013 11.126
f 52/115/30 51/114/30 50/113/29

vt 2.09161e-013 10.4468
v -117.815 2030.23 -10
vn -0.5 -0.866025 6.74683e-015
f 51/24/30 52/116/30 53/90/31

v -117.815 2030.23 -7.77394e-012
vt 2.49235e-013 12.7658
f 54/117/31 53/90/31 52/116/30

vt 1.36148e-013 11.2956
f 53/32/31 54/118/31 15/33/10

vt 1.69156e-013 13.6146
f 14/119/10 15/33/10 54/118/31

usemtl qq300
vt 0.741352 0.0806303
vt 0.258648 0.0806303
f 14/29/9 54/120/9 46/121/9

vt 0.375067 0.0322538
f 46/121/9 54/120/9 48/122/9

vt 0.624933 0.0322538
f 54/120/9 52/123/9 48/122/9

vt 0.5 0.0157535
f 50/124/9 48/122/9 52/123/9

f 13/28/9 14/29/9 46/121/9

usemtl M_0128_White
vt -2.60179 2.60179
vt -13.3246 1.19011
f 15/36/11 44/125/11 53/126/11

f 16/35/11 44/125/11 15/36/11

vt -4.44154 1.19011
f 44/125/11 45/127/11 53/126/11

vt -11.1822 0.302683
f 53/126/11 45/127/11 51/128/11

vt -6.58397 0.302683
f 45/127/11 47/129/11 51/128/11

vt -8.88307 3.00758e-015
f 49/130/11 51/128/11 47/129/11

usemtl qq300
vt 0.0172957 0.5
f 19/131/9 43/94/9 18/95/9

v -222.942 2284.03 -9.7592e-012
vt 0.966257 0.625332
f 55/132/9 43/94/9 19/131/9

usemtl M_0128_White
vt 4.36318e-014 6.48813
vt 6.51732e-014 8.80708
vn -0.965926 0.258819 -1.72403e-015
vt 0.393701 6.48813
f 43/133/25 55/134/32 41/135/25

f 40/93/32 41/135/25 55/134/32

vt 2.74773e-014 3.64801
v -200.401 2338.45 -1.03006e-011
vt 5.13691e-014 5.96696
vt 0.393701 3.64801
f 55/136/32 56/137/24 40/138/32

usemtl qq300
vt 0.918034 0.742123
vt 0.0337435 0.625332
f 56/139/9 55/132/9 21/140/9

f 21/140/9 55/132/9 19/131/9

vt 0.0819658 0.742123
f 23/141/9 56/139/9 21/140/9

vt 0.841323 0.842414
f 37/142/9 56/139/9 23/141/9

usemtl M_0128_White
vt 6.65485e-015 0.48027
f 56/143/24 37/75/23 39/74/24

vt 0.393701 5.96696
f 39/144/24 40/138/32 56/137/24

usemtl qq300
vt 0.158677 0.842414
f 25/145/9 37/142/9 23/141/9

vt 0.741352 0.91937
f 35/146/9 37/142/9 25/145/9

vt 0.258648 0.91937
f 27/147/9 35/146/9 25/145/9

vt 0.624933 0.967746
f 33/148/9 35/146/9 27/147/9

vt 0.375067 0.967746
f 29/149/9 33/148/9 27/147/9

vt 0.5 0.984246
f 31/150/9 33/148/9 29/149/9

usemtl M_0128_White
f 41/114/25 42/93/8 43/92/25

