# Alias OBJ Model File
# Exported from SketchUp, (c) 2000-2012 Trimble Navigation Limited
# File units = millimeters

mtllib trafik_levha_engel.mtl

g Mesh1 Group2 Group1 Model

usemtl Color_E01
v -238.5 1359.13 -14.5886
vt 70.8661 0
vn 1.39687e-013 6.41646e-013 1
v -38.4995 1059.13 -14.5886
vt 62.9921 11.811
v -38.4995 1359.13 -14.5886
vt 62.9921 0
f 1/1/1 2/2/1 3/3/1

v -238.5 1059.13 -14.5886
vt 70.8661 11.811
f 2/2/1 1/1/1 4/4/1

usemtl Color_009
v -438.5 1359.13 -14.5886
vt 78.7402 0
f 5/5/1 4/4/1 1/1/1

v -438.5 1059.13 -14.5886
vt 78.7402 11.811
f 4/4/1 5/5/1 6/6/1

usemtl Color_E01
v -638.5 1359.13 -14.5886
vt 86.6142 0
f 7/7/1 6/6/1 5/5/1

v -638.5 1059.13 -14.5886
vt 86.6142 11.811
f 6/6/1 7/7/1 8/8/1

usemtl Color_009
v -838.5 1359.13 -14.5886
vt 94.4882 0
f 9/9/1 8/8/1 7/7/1

v -838.5 1059.13 -14.5886
vt 94.4882 11.811
f 8/8/1 9/9/1 10/10/1

usemtl Color_E01
v -1038.5 1359.13 -14.5886
vt 102.362 0
f 11/11/1 10/10/1 9/9/1

v -1038.5 1059.13 -14.5886
vt 102.362 11.811
f 10/10/1 11/11/1 12/12/1

usemtl Color_009
v -1238.5 1359.13 -14.5886
vt 110.236 0
f 13/13/1 12/12/1 11/11/1

v -1238.5 1059.13 -14.5886
vt 110.236 11.811
f 12/12/1 13/13/1 14/14/1

usemtl Color_E01
v -1438.5 1059.13 -14.5886
vt 118.11 11.811
f 13/13/1 15/15/1 14/14/1

v -1438.5 1359.13 -14.5886
vt 118.11 0
f 15/15/1 13/13/1 16/16/1

usemtl FrontColor
v 1561.5 1359.13 -14.5886
vt 0 0.393701
vn -8.96296e-026 1 -6.41646e-013
vt 118.11 0.393701
vt 110.236 0.393701
f 17/17/2 16/18/2 13/19/2

v 1561.5 1359.13 -24.5886
vt 0 0
f 18/20/2 16/18/2 17/17/2

v -1438.5 1359.13 -24.5886
f 16/18/2 18/20/2 19/16/2

vn -1.39687e-013 -6.41646e-013 -1
v -1438.5 1059.13 -24.5886
vt -118.11 11.811
vt -118.11 0
f 18/20/3 20/21/3 19/22/3

v 1561.5 1059.13 -24.5886
vt 0 11.811
f 20/21/3 18/20/3 21/23/3

vn 1 0 -1.39687e-013
v 1561.5 1059.13 -14.5886
vt -11.811 0.393701
vt -11.811 0
f 18/20/4 22/24/4 21/25/4

f 22/24/4 18/20/4 17/17/4

usemtl Color_E01
v 1361.5 1359.13 -14.5886
vt 7.87402 0
f 23/26/1 22/23/1 17/20/1

v 1361.5 1059.13 -14.5886
vt 7.87402 11.811
f 22/23/1 23/26/1 24/27/1

usemtl Color_009
v 1161.5 1359.13 -14.5886
vt 15.748 0
f 25/28/1 24/27/1 23/26/1

v 1161.5 1059.13 -14.5886
vt 15.748 11.811
f 24/27/1 25/28/1 26/29/1

usemtl Color_E01
v 961.5 1359.13 -14.5886
vt 23.622 0
f 27/30/1 26/29/1 25/28/1

v 961.5 1059.13 -14.5886
vt 23.622 11.811
f 26/29/1 27/30/1 28/31/1

usemtl Color_009
v 761.5 1359.13 -14.5886
vt 31.4961 0
f 29/32/1 28/31/1 27/30/1

v 761.5 1059.13 -14.5886
vt 31.4961 11.811
f 28/31/1 29/32/1 30/33/1

usemtl Color_E01
v 561.5 1359.13 -14.5886
vt 39.3701 0
f 31/34/1 30/33/1 29/32/1

v 561.5 1059.13 -14.5886
vt 39.3701 11.811
f 30/33/1 31/34/1 32/35/1

usemtl Color_009
v 361.5 1359.13 -14.5886
vt 47.2441 0
f 33/36/1 32/35/1 31/34/1

v 361.5 1059.13 -14.5886
vt 47.2441 11.811
f 32/35/1 33/36/1 34/37/1

usemtl Color_E01
v 161.5 1359.13 -14.5886
vt 55.1181 0
f 35/38/1 34/37/1 33/36/1

v 161.5 1059.13 -14.5886
vt 55.1181 11.811
f 34/37/1 35/38/1 36/39/1

usemtl Color_009
f 3/3/1 36/39/1 35/38/1

f 36/39/1 3/3/1 2/2/1

usemtl FrontColor
vt -118.11 0.393701
vn 8.96296e-026 -1 6.41646e-013
vt -55.1181 0.393701
vt -62.9921 0.393701
f 15/40/5 36/41/5 2/42/5

vt -47.2441 0.393701
f 15/40/5 34/43/5 36/41/5

vt -39.3701 0.393701
f 15/40/5 32/44/5 34/43/5

vt -31.4961 0.393701
f 15/40/5 30/45/5 32/44/5

vt -23.622 0.393701
f 15/40/5 28/46/5 30/45/5

vt -15.748 0.393701
f 15/40/5 26/47/5 28/46/5

vt -7.87402 0.393701
f 15/40/5 24/48/5 26/47/5

f 15/40/5 22/17/5 24/48/5

f 20/22/5 22/17/5 15/40/5

f 22/17/5 20/22/5 21/20/5

vn -1 0 1.39687e-013
vt 11.811 0
vt 11.811 0.393701
f 16/17/6 20/49/6 15/50/6

f 20/49/6 16/17/6 19/20/6

vt -70.8661 0.393701
f 15/40/5 2/42/5 4/51/5

vt -78.7402 0.393701
f 15/40/5 4/51/5 6/52/5

vt -86.6142 0.393701
f 15/40/5 6/52/5 8/53/5

vt -94.4882 0.393701
f 15/40/5 8/53/5 10/54/5

vt -102.362 0.393701
f 15/40/5 10/54/5 12/55/5

vt -110.236 0.393701
f 15/40/5 12/55/5 14/56/5

vt 62.9921 0.393701
vt 55.1181 0.393701
f 17/17/2 3/57/2 35/58/2

vt 70.8661 0.393701
f 17/17/2 1/59/2 3/57/2

vt 78.7402 0.393701
f 17/17/2 5/60/2 1/59/2

vt 86.6142 0.393701
f 17/17/2 7/61/2 5/60/2

vt 94.4882 0.393701
f 17/17/2 9/62/2 7/61/2

vt 102.362 0.393701
f 17/17/2 11/63/2 9/62/2

f 17/17/2 13/19/2 11/63/2

vt 47.2441 0.393701
f 17/17/2 35/58/2 33/64/2

vt 39.3701 0.393701
f 17/17/2 33/64/2 31/65/2

vt 31.4961 0.393701
f 17/17/2 31/65/2 29/66/2

vt 23.622 0.393701
f 17/17/2 29/66/2 27/67/2

vt 15.748 0.393701
f 17/17/2 27/67/2 25/68/2

vt 7.87402 0.393701
f 17/17/2 25/68/2 23/69/2

g Mesh2 Group3 Group1 Model

usemtl Color_009
v -1116.72 1500.04 -24.5886
vt 17.8447 2.49223e-012
vn 0 1 -0
v -1041.72 1500.04 -99.5886
vt 20.7975 2.95276
v -1116.72 1500.04 -99.5886
vt 17.8447 2.95276
f 37/70/7 38/71/7 39/72/7

v -1041.72 1500.04 -24.5886
vt 20.7975 2.90479e-012
f 38/71/7 37/70/7 40/73/7

v -1116.72 400.298 -24.5886
vt 17.8447 15.7583
vn 1.39672e-013 -1.12801e-018 1
vt 20.7975 59.0551
vt 17.8447 59.0551
f 41/74/8 40/75/8 37/76/8

v -1116.72 0.037796 -24.5886
vt 17.8447 7.04409e-007
f 42/77/8 40/75/8 41/74/8

v -1041.72 0.037796 -24.5886
vt 20.7975 7.04409e-007
f 40/75/8 42/77/8 43/78/8

vt -17.8447 2.49223e-012
vn 0 -1 -0
v -1041.72 0.037796 -99.5886
vt -20.7975 2.95276
vt -20.7975 2.90479e-012
f 42/79/9 44/80/9 43/81/9

v -1116.72 0.037796 -99.5886
vt -17.8447 2.95276
f 44/80/9 42/79/9 45/82/9

vt -2.09575e-015 15.7583
vn -1 9.01803e-016 1.3957e-013
vt -2.95276 7.04409e-007
vt -1.65166e-015 7.04409e-007
f 41/83/10 45/84/10 42/85/10

v -1116.72 400.298 -99.5886
vt -2.95276 15.7583
f 45/84/10 41/83/10 46/86/10

vn -1 -3.28219e-016 1.3957e-013
vt -2.95276 59.0551
f 41/83/11 39/87/11 46/86/11

vt -1.65166e-015 59.0551
f 39/87/11 41/83/11 37/88/11

vt -20.7975 59.0551
vn -2.53571e-013 2.47758e-015 -1
vt -17.8447 15.7583
vt -17.8447 59.0551
f 38/89/12 46/90/12 39/91/12

v -1041.72 400.26 -99.5886
vt -20.7975 15.7568
f 47/92/12 46/90/12 38/89/12

vt -20.7975 7.04409e-007
f 44/93/12 46/90/12 47/92/12

vt -17.8447 7.04409e-007
f 46/90/12 44/93/12 45/94/12

vt 2.95276 59.0551
vn 1 3.5772e-028 -1.3957e-013
vt 2.95276 7.04409e-007
vt 2.95276 15.7568
f 38/95/13 44/96/13 47/97/13

vt 2.09575e-015 59.0551
f 40/98/13 44/96/13 38/95/13

vt 2.09575e-015 7.04409e-007
f 44/96/13 40/98/13 43/99/13

v -1516.95 0.0755563 -24.5886
vt 7.99345e-016 1.47743
vn 0.707107 -0.707107 -9.85409e-014
vt 2.95276 23.7609
vt 5.87244e-015 23.7609
f 48/100/14 46/101/14 41/102/14

v -1516.95 0.0755563 -99.5886
vt 2.95276 1.47743
f 46/101/14 48/100/14 49/103/14

vt -1.12476e-016 -1.47533
vn -0.707107 -0.707107 9.87735e-014
v -1569.98 53.1086 -99.5886
vt -2.95276 1.47743
vt -2.95276 -1.47533
f 48/104/15 50/105/15 49/106/15

v -1569.98 53.1086 -24.5886
vt 5.7567e-026 1.47743
f 50/105/15 48/104/15 51/107/15

vn 1.3971e-013 -3.04408e-017 1
vt 4.12115e-013 2.0894
vt 2.08791 0.00148733
f 41/74/16 51/108/16 48/109/16

v -1169.76 453.331 -24.5886
vt 15.7568 17.8462
f 51/108/16 41/74/16 52/110/16

vt 1.78446e-015 -1.47533
vn 0.707107 0.707107 -9.87029e-014
v -1169.76 453.331 -99.5886
vt 1.46343e-015 1.47743
f 41/111/17 53/103/17 52/112/17

vt 2.95276 -1.47533
f 53/103/17 41/111/17 46/113/17

vn -1.3971e-013 3.04408e-017 -1
vt -4.1253e-013 2.0894
vt -15.7568 17.8462
f 46/90/18 50/114/18 53/115/18

vt -2.08791 0.00148733
f 50/114/18 46/90/18 49/116/18

vn -0.707107 0.707107 9.87735e-014
vt -2.95276 23.7609
f 51/107/19 53/117/19 50/105/19

vt 1.10482e-016 23.7609
f 53/117/19 51/107/19 52/118/19

g Mesh3 Group3 Group1 Model

v -587.609 53.0708 -99.5886
vt 2.95276 28.8244
vn 0.707107 -0.707107 -9.87735e-014
v -640.642 0.0377782 -24.5886
vt 2.04252e-012 25.8716
v -640.642 0.0377782 -99.5886
vt 2.95276 25.8716
f 54/119/20 55/120/20 56/121/20

v -587.609 53.0708 -24.5886
vt 2.04263e-012 28.8244
f 55/120/20 54/119/20 57/122/20

v -987.832 453.293 -99.5886
vt 2.95276 -3.58817
vn 0.707107 0.707107 -9.87735e-014
vt 2.04263e-012 -25.8716
vt 2.95276 -25.8716
f 58/123/21 57/124/21 54/125/21

v -987.832 453.293 -24.5886
vt 2.04275e-012 -3.58817
f 57/124/21 58/123/21 59/126/21

vt -2.95276 28.8244
vn -0.707107 0.707107 9.86669e-014
v -1040.86 400.26 -24.5886
vt -2.04577e-012 25.8716
vt -2.0462e-012 28.8244
f 58/127/22 60/128/22 59/129/22

v -1040.86 400.26 -99.5886
vt -2.95276 25.8716
f 60/128/22 58/127/22 61/130/22

vt -38.6759 2.08791
vn -1.3971e-013 -3.04345e-017 -1
vt -20.8312 15.7568
vt -22.9191 17.8447
f 54/131/23 61/132/23 58/133/23

vt -36.588 8.98658e-017
f 61/132/23 54/131/23 56/134/23

vt -2.03966e-012 -25.8716
vn -0.707107 -0.707107 9.88288e-014
vt -2.95276 -3.58817
vt -2.95276 -25.8716
f 55/135/24 61/136/24 56/137/24

vt -2.041e-012 -3.58817
f 61/136/24 55/135/24 60/138/24

vt 38.6759 2.08791
vn 1.39687e-013 0 1
vt 20.8312 15.7568
vt 36.588 0
f 57/139/25 60/140/25 55/141/25

vt 22.9191 17.8447
f 60/140/25 57/139/25 59/142/25

g Mesh4 Group3 Group1 Model

v -1115.86 453.293 -152.622
vt -5.04067 17.8447
vn -1 0 8.31189e-013
v -1115.86 0.037796 -499.811
vt -18.7095 7.04409e-007
v -1115.86 400.26 -99.5886
vt -2.95276 15.7568
f 62/143/26 63/144/26 64/145/26

v -1115.86 53.0708 -552.844
vt -20.7975 2.08791
f 63/144/26 62/143/26 65/146/26

vt -17.8785 9.05382
vn -5.8774e-013 0.707107 -0.707107
v -1040.86 53.0708 -552.844
vt -20.8312 -13.2296
vt -17.8785 -13.2296
f 62/147/27 66/148/27 65/149/27

v -1040.86 453.293 -152.622
vt -20.8312 9.05382
f 66/148/27 62/147/27 67/150/27

vt 17.8785 16.1824
vn 5.19887e-013 0.707107 0.707107
vt 20.8312 13.2296
vt 20.8312 16.1824
f 62/151/28 61/152/28 67/153/28

vt 17.8785 13.2296
f 64/154/28 61/152/28 62/151/28

vt 20.7975 13.2296
f 61/152/28 64/154/28 47/155/28

vt 17.8785 9.05382
vn 5.20627e-013 -0.707107 0.707107
v -1040.86 0.037796 -499.811
vt 20.8312 -13.2296
vt 20.7975 9.05382
f 64/156/29 68/157/29 47/158/29

vt 17.8785 -13.2296
f 68/157/29 64/156/29 63/159/29

vt -17.8785 16.1824
vn -5.8774e-013 -0.707107 -0.707107
vt -20.8312 13.2296
vt -17.8785 13.2296
f 65/160/30 68/161/30 63/162/30

vt -20.8312 16.1824
f 68/161/30 65/160/30 66/163/30

vt 5.04067 17.8447
vn 1 3.74296e-016 -8.31689e-013
vt 18.7095 7.04409e-007
vt 20.7975 2.08791
f 67/164/31 68/165/31 66/166/31

f 68/165/31 67/164/31 61/97/31

vt 20.8312 9.05382
f 47/158/29 68/157/29 61/167/29

g Mesh5 Group4 Group1 Model

v 1311.13 400.222 -99.5886
v 1764.38 53.033 -99.5886
v 1711.35 0 -99.5886
f 69/132/23 70/131/23 71/134/23

v 1364.16 453.255 -99.5886
f 70/131/23 69/132/23 72/133/23

v 1311.13 400.222 -24.5886
vt -2.04524e-012 25.8716
vn -0.707107 0.707107 9.86849e-014
f 73/168/32 72/127/32 69/130/32

v 1364.16 453.255 -24.5886
vt -2.04562e-012 28.8244
f 72/127/32 73/168/32 74/169/32

v 1764.38 53.033 -24.5886
f 73/140/25 75/139/25 74/142/25

v 1711.35 0 -24.5886
f 75/139/25 73/140/25 76/141/25

vn -0.707107 -0.707107 9.71e-014
vt -2.12912e-012 -25.8716
vt -2.09193e-012 -3.58817
f 69/136/33 76/170/33 73/171/33

f 76/170/33 69/136/33 71/137/33

f 70/119/20 76/120/20 71/121/20

f 76/120/20 70/119/20 75/122/20

f 72/123/21 75/124/21 70/125/21

f 75/124/21 72/123/21 74/126/21

g Mesh6 Group4 Group1 Model

v 1310.27 1.7892e-005 -99.5886
vn 1 3.57464e-028 -1.3957e-013
v 1310.27 1500 -24.5886
v 1310.27 1.7892e-005 -24.5886
f 77/96/34 78/98/34 79/99/34

v 1310.27 1500 -99.5886
f 78/98/34 77/96/34 80/95/34

v 1310.27 400.222 -99.5886
f 80/95/34 77/96/34 81/97/34

v 1235.27 400.26 -99.5886
f 77/93/12 82/90/12 81/92/12

v 1235.27 1.7892e-005 -99.5886
f 82/90/12 77/93/12 83/94/12

v 1235.27 1.7892e-005 -24.5886
f 77/80/9 84/79/9 83/82/9

f 84/79/9 77/80/9 79/81/9

f 78/75/8 84/77/8 79/78/8

v 1235.27 400.26 -24.5886
f 84/77/8 78/75/8 85/74/8

v 1235.27 1500 -24.5886
f 85/74/8 78/75/8 86/76/8

f 80/71/7 86/70/7 78/73/7

v 1235.27 1500 -99.5886
f 86/70/7 80/71/7 87/72/7

f 80/89/12 82/90/12 87/91/12

f 81/92/12 82/90/12 80/89/12

f 85/83/11 87/87/11 82/86/11

f 87/87/11 85/83/11 86/88/11

f 83/84/10 85/83/10 82/86/10

f 85/83/10 83/84/10 84/85/10

v 835.046 0.0377782 -24.5886
vt 3.73955e-016 1.47743
vn 0.707107 -0.707107 -9.8685e-014
vt 2.23677e-015 23.7609
f 88/172/35 82/101/35 85/173/35

v 835.046 0.0377782 -99.5886
f 82/101/35 88/172/35 89/103/35

v 782.013 53.0708 -99.5886
f 88/104/15 90/105/15 89/106/15

v 782.013 53.0708 -24.5886
f 90/105/15 88/104/15 91/107/15

f 85/74/16 91/108/16 88/109/16

v 1182.23 453.293 -24.5886
f 91/108/16 85/74/16 92/110/16

v 1182.23 453.293 -99.5886
f 85/111/17 93/103/17 92/112/17

f 93/103/17 85/111/17 82/113/17

f 82/90/18 90/114/18 93/115/18

f 90/114/18 82/90/18 89/116/18

vt 5.75923e-026 1.47743
f 91/174/19 93/117/19 90/105/19

f 93/117/19 91/174/19 92/118/19

g Mesh7 Group4 Group1 Model

v 1311.13 1.7892e-005 -499.811
vn 1 -3.63749e-016 -8.30726e-013
v 1311.13 453.255 -152.622
f 94/165/36 95/164/36 69/97/36

v 1311.13 53.033 -552.844
f 95/164/36 94/165/36 96/166/36

v 1236.13 53.033 -552.844
f 94/161/30 97/160/30 96/163/30

v 1236.13 1.7892e-005 -499.811
f 97/160/30 94/161/30 98/162/30

vn 5.20413e-013 -0.707107 0.707107
v 1236.13 400.222 -99.5886
f 94/157/37 99/156/37 98/159/37

f 99/156/37 94/157/37 81/158/37

f 81/158/37 94/157/37 69/167/37

vn 5.20006e-013 0.707107 0.707107
f 95/153/38 81/155/38 69/152/38

f 81/155/38 95/153/38 99/154/38

v 1236.13 453.255 -152.622
f 99/154/38 95/153/38 100/151/38

f 96/148/27 100/147/27 95/150/27

f 100/147/27 96/148/27 97/149/27

f 98/144/26 100/143/26 97/146/26

f 100/143/26 98/144/26 99/145/26

